<?xml version="1.0" encoding="UTF-8" standalone="no"?>
<!DOCTYPE svg PUBLIC "-//W3C//DTD SVG 1.1//EN"
 "http://www.w3.org/Graphics/SVG/1.1/DTD/svg11.dtd">
<!-- Generated by graphviz version 2.49.1 (20210923.0004)
 -->
<!-- Title: G Pages: 1 -->
<svg width="4235pt" height="1131pt"
 viewBox="0.00 0.00 4235.20 1130.70" xmlns="http://www.w3.org/2000/svg" xmlns:xlink="http://www.w3.org/1999/xlink">
<g id="graph0" class="graph" transform="scale(1 1) rotate(0) translate(21.6 1109.1)">
<title>G</title>
<polygon fill="#111111" stroke="transparent" points="-21.6,21.6 -21.6,-1109.1 4213.6,-1109.1 4213.6,21.6 -21.6,21.6"/>
<!-- ../apollo/queries.js -->
<g id="node1" class="node">
<title>../apollo/queries.js</title>
<path fill="none" stroke="#cfffac" d="M1185.33,-507C1185.33,-507 1071.67,-507 1071.67,-507 1067.83,-507 1064,-503.17 1064,-499.33 1064,-499.33 1064,-491.67 1064,-491.67 1064,-487.83 1067.83,-484 1071.67,-484 1071.67,-484 1185.33,-484 1185.33,-484 1189.17,-484 1193,-487.83 1193,-491.67 1193,-491.67 1193,-499.33 1193,-499.33 1193,-503.17 1189.17,-507 1185.33,-507"/>
<text text-anchor="middle" x="1128.5" y="-491.8" font-family="Arial" font-size="14.00" fill="#cfffac">../apollo/queries.js</text>
</g>
<!-- ../components/auth/Fields.js -->
<g id="node2" class="node">
<title>../components/auth/Fields.js</title>
<path fill="none" stroke="#c6c5fe" d="M2524.33,-1058C2524.33,-1058 2348.67,-1058 2348.67,-1058 2344.83,-1058 2341,-1054.17 2341,-1050.33 2341,-1050.33 2341,-1042.67 2341,-1042.67 2341,-1038.83 2344.83,-1035 2348.67,-1035 2348.67,-1035 2524.33,-1035 2524.33,-1035 2528.17,-1035 2532,-1038.83 2532,-1042.67 2532,-1042.67 2532,-1050.33 2532,-1050.33 2532,-1054.17 2528.17,-1058 2524.33,-1058"/>
<text text-anchor="middle" x="2436.5" y="-1042.8" font-family="Arial" font-size="14.00" fill="#c6c5fe">../components/auth/Fields.js</text>
</g>
<!-- ../components/ui/validate.js -->
<g id="node3" class="node">
<title>../components/ui/validate.js</title>
<path fill="none" stroke="#cfffac" d="M2813.33,-1058C2813.33,-1058 2643.67,-1058 2643.67,-1058 2639.83,-1058 2636,-1054.17 2636,-1050.33 2636,-1050.33 2636,-1042.67 2636,-1042.67 2636,-1038.83 2639.83,-1035 2643.67,-1035 2643.67,-1035 2813.33,-1035 2813.33,-1035 2817.17,-1035 2821,-1038.83 2821,-1042.67 2821,-1042.67 2821,-1050.33 2821,-1050.33 2821,-1054.17 2817.17,-1058 2813.33,-1058"/>
<text text-anchor="middle" x="2728.5" y="-1042.8" font-family="Arial" font-size="14.00" fill="#cfffac">../components/ui/validate.js</text>
</g>
<!-- ../components/auth/Fields.js&#45;&gt;../components/ui/validate.js -->
<g id="edge1" class="edge">
<title>../components/auth/Fields.js&#45;&gt;../components/ui/validate.js</title>
<path fill="none" stroke="#757575" d="M2532.06,-1046.5C2561.9,-1046.5 2595.01,-1046.5 2625.36,-1046.5"/>
<polygon fill="#757575" stroke="#757575" points="2625.54,-1050 2635.54,-1046.5 2625.54,-1043 2625.54,-1050"/>
</g>
<!-- ../components/home/Rating.js -->
<g id="node4" class="node">
<title>../components/home/Rating.js</title>
<path fill="none" stroke="#c6c5fe" d="M2529.83,-816C2529.83,-816 2343.17,-816 2343.17,-816 2339.33,-816 2335.5,-812.17 2335.5,-808.33 2335.5,-808.33 2335.5,-800.67 2335.5,-800.67 2335.5,-796.83 2339.33,-793 2343.17,-793 2343.17,-793 2529.83,-793 2529.83,-793 2533.67,-793 2537.5,-796.83 2537.5,-800.67 2537.5,-800.67 2537.5,-808.33 2537.5,-808.33 2537.5,-812.17 2533.67,-816 2529.83,-816"/>
<text text-anchor="middle" x="2436.5" y="-800.8" font-family="Arial" font-size="14.00" fill="#c6c5fe">../components/home/Rating.js</text>
</g>
<!-- ../images/empty&#45;star.svg -->
<g id="node5" class="node">
<title>../images/empty&#45;star.svg</title>
<path fill="none" stroke="#cfffac" d="M2804.83,-816C2804.83,-816 2652.17,-816 2652.17,-816 2648.33,-816 2644.5,-812.17 2644.5,-808.33 2644.5,-808.33 2644.5,-800.67 2644.5,-800.67 2644.5,-796.83 2648.33,-793 2652.17,-793 2652.17,-793 2804.83,-793 2804.83,-793 2808.67,-793 2812.5,-796.83 2812.5,-800.67 2812.5,-800.67 2812.5,-808.33 2812.5,-808.33 2812.5,-812.17 2808.67,-816 2804.83,-816"/>
<text text-anchor="middle" x="2728.5" y="-800.8" font-family="Arial" font-size="14.00" fill="#cfffac">../images/empty&#45;star.svg</text>
</g>
<!-- ../components/home/Rating.js&#45;&gt;../images/empty&#45;star.svg -->
<g id="edge2" class="edge">
<title>../components/home/Rating.js&#45;&gt;../images/empty&#45;star.svg</title>
<path fill="none" stroke="#757575" d="M2537.71,-804.5C2568.89,-804.5 2603.14,-804.5 2633.86,-804.5"/>
<polygon fill="#757575" stroke="#757575" points="2634.13,-808 2644.13,-804.5 2634.13,-801 2634.13,-808"/>
</g>
<!-- ../images/full&#45;star.svg -->
<g id="node6" class="node">
<title>../images/full&#45;star.svg</title>
<path fill="none" stroke="#cfffac" d="M2794.83,-898C2794.83,-898 2662.17,-898 2662.17,-898 2658.33,-898 2654.5,-894.17 2654.5,-890.33 2654.5,-890.33 2654.5,-882.67 2654.5,-882.67 2654.5,-878.83 2658.33,-875 2662.17,-875 2662.17,-875 2794.83,-875 2794.83,-875 2798.67,-875 2802.5,-878.83 2802.5,-882.67 2802.5,-882.67 2802.5,-890.33 2802.5,-890.33 2802.5,-894.17 2798.67,-898 2794.83,-898"/>
<text text-anchor="middle" x="2728.5" y="-882.8" font-family="Arial" font-size="14.00" fill="#cfffac">../images/full&#45;star.svg</text>
</g>
<!-- ../components/home/Rating.js&#45;&gt;../images/full&#45;star.svg -->
<g id="edge3" class="edge">
<title>../components/home/Rating.js&#45;&gt;../images/full&#45;star.svg</title>
<path fill="none" stroke="#757575" d="M2468.2,-816.07C2493.84,-825.75 2531.33,-839.95 2564,-852.5 2580.03,-858.66 2583.42,-862.03 2600,-866.5 2614.15,-870.31 2629.39,-873.48 2644.25,-876.09"/>
<polygon fill="#757575" stroke="#757575" points="2644.01,-879.6 2654.45,-877.81 2645.17,-872.7 2644.01,-879.6"/>
</g>
<!-- ../images/half&#45;star.svg -->
<g id="node7" class="node">
<title>../images/half&#45;star.svg</title>
<path fill="none" stroke="#cfffac" d="M2797.33,-857C2797.33,-857 2659.67,-857 2659.67,-857 2655.83,-857 2652,-853.17 2652,-849.33 2652,-849.33 2652,-841.67 2652,-841.67 2652,-837.83 2655.83,-834 2659.67,-834 2659.67,-834 2797.33,-834 2797.33,-834 2801.17,-834 2805,-837.83 2805,-841.67 2805,-841.67 2805,-849.33 2805,-849.33 2805,-853.17 2801.17,-857 2797.33,-857"/>
<text text-anchor="middle" x="2728.5" y="-841.8" font-family="Arial" font-size="14.00" fill="#cfffac">../images/half&#45;star.svg</text>
</g>
<!-- ../components/home/Rating.js&#45;&gt;../images/half&#45;star.svg -->
<g id="edge4" class="edge">
<title>../components/home/Rating.js&#45;&gt;../images/half&#45;star.svg</title>
<path fill="none" stroke="#757575" d="M2519.05,-816.03C2557.19,-821.42 2602.63,-827.85 2641.33,-833.32"/>
<polygon fill="#757575" stroke="#757575" points="2641.14,-836.83 2651.53,-834.76 2642.12,-829.89 2641.14,-836.83"/>
</g>
<!-- ../components/product&#45;detail/ProductImages.js -->
<g id="node8" class="node">
<title>../components/product&#45;detail/ProductImages.js</title>
<path fill="none" stroke="#cfffac" d="M451.83,-548C451.83,-548 162.17,-548 162.17,-548 158.33,-548 154.5,-544.17 154.5,-540.33 154.5,-540.33 154.5,-532.67 154.5,-532.67 154.5,-528.83 158.33,-525 162.17,-525 162.17,-525 451.83,-525 451.83,-525 455.67,-525 459.5,-528.83 459.5,-532.67 459.5,-532.67 459.5,-540.33 459.5,-540.33 459.5,-544.17 455.67,-548 451.83,-548"/>
<text text-anchor="middle" x="307" y="-532.8" font-family="Arial" font-size="14.00" fill="#cfffac">../components/product&#45;detail/ProductImages.js</text>
</g>
<!-- ../components/product&#45;detail/ProductInfo.js -->
<g id="node9" class="node">
<title>../components/product&#45;detail/ProductInfo.js</title>
<path fill="none" stroke="#ff6c60" d="M2254.83,-700C2254.83,-700 1987.17,-700 1987.17,-700 1983.33,-700 1979.5,-696.17 1979.5,-692.33 1979.5,-692.33 1979.5,-684.67 1979.5,-684.67 1979.5,-680.83 1983.33,-677 1987.17,-677 1987.17,-677 2254.83,-677 2254.83,-677 2258.67,-677 2262.5,-680.83 2262.5,-684.67 2262.5,-684.67 2262.5,-692.33 2262.5,-692.33 2262.5,-696.17 2258.67,-700 2254.83,-700"/>
<text text-anchor="middle" x="2121" y="-684.8" font-family="Arial" font-size="14.00" fill="#ff6c60">../components/product&#45;detail/ProductInfo.js</text>
</g>
<!-- ../components/product&#45;detail/ProductInfo.js&#45;&gt;../components/home/Rating.js -->
<g id="edge5" class="edge">
<title>../components/product&#45;detail/ProductInfo.js&#45;&gt;../components/home/Rating.js</title>
<path fill="none" stroke="#757575" d="M2155.11,-700.07C2186.39,-711.58 2234.18,-730.62 2273,-752.5 2290.19,-762.19 2290.93,-770.56 2309,-778.5 2319.9,-783.29 2331.73,-787.22 2343.63,-790.42"/>
<polygon fill="#757575" stroke="#757575" points="2343.06,-793.89 2353.62,-792.95 2344.78,-787.11 2343.06,-793.89"/>
</g>
<!-- ../components/product&#45;list/ProductFrameGrid.js -->
<g id="node10" class="node">
<title>../components/product&#45;list/ProductFrameGrid.js</title>
<path fill="none" stroke="#ff6c60" d="M1629.33,-449C1629.33,-449 1334.67,-449 1334.67,-449 1330.83,-449 1327,-445.17 1327,-441.33 1327,-441.33 1327,-433.67 1327,-433.67 1327,-429.83 1330.83,-426 1334.67,-426 1334.67,-426 1629.33,-426 1629.33,-426 1633.17,-426 1637,-429.83 1637,-433.67 1637,-433.67 1637,-441.33 1637,-441.33 1637,-445.17 1633.17,-449 1629.33,-449"/>
<text text-anchor="middle" x="1482" y="-433.8" font-family="Arial" font-size="14.00" fill="#ff6c60">../components/product&#45;list/ProductFrameGrid.js</text>
</g>
<!-- ../components/product&#45;detail/ProductInfo.js&#45;&gt;../components/product&#45;list/ProductFrameGrid.js -->
<g id="edge6" class="edge">
<title>../components/product&#45;detail/ProductInfo.js&#45;&gt;../components/product&#45;list/ProductFrameGrid.js</title>
<path fill="none" stroke="#757575" d="M2076.89,-676.97C1971.73,-648.66 1708.09,-576.42 1673,-554.5 1652.99,-542 1655.82,-529.72 1637,-515.5 1601.57,-488.73 1555.56,-466.82 1523.09,-453.11"/>
<polygon fill="#757575" stroke="#757575" points="1524.05,-449.72 1513.48,-449.12 1521.37,-456.18 1524.05,-449.72"/>
</g>
<!-- ../components/product&#45;list/QtyButton.js -->
<g id="node11" class="node">
<title>../components/product&#45;list/QtyButton.js</title>
<path fill="none" stroke="#c6c5fe" d="M2849.33,-701C2849.33,-701 2607.67,-701 2607.67,-701 2603.83,-701 2600,-697.17 2600,-693.33 2600,-693.33 2600,-685.67 2600,-685.67 2600,-681.83 2603.83,-678 2607.67,-678 2607.67,-678 2849.33,-678 2849.33,-678 2853.17,-678 2857,-681.83 2857,-685.67 2857,-685.67 2857,-693.33 2857,-693.33 2857,-697.17 2853.17,-701 2849.33,-701"/>
<text text-anchor="middle" x="2728.5" y="-685.8" font-family="Arial" font-size="14.00" fill="#c6c5fe">../components/product&#45;list/QtyButton.js</text>
</g>
<!-- ../components/product&#45;detail/ProductInfo.js&#45;&gt;../components/product&#45;list/QtyButton.js -->
<g id="edge7" class="edge">
<title>../components/product&#45;detail/ProductInfo.js&#45;&gt;../components/product&#45;list/QtyButton.js</title>
<path fill="none" stroke="#757575" d="M2262.82,-688.73C2361.19,-688.9 2491.88,-689.11 2589.6,-689.27"/>
<polygon fill="#757575" stroke="#757575" points="2589.84,-692.77 2599.85,-689.29 2589.86,-685.77 2589.84,-692.77"/>
</g>
<!-- ../components/product&#45;list/Sizes.js -->
<g id="node12" class="node">
<title>../components/product&#45;list/Sizes.js</title>
<path fill="none" stroke="#cfffac" d="M2543.33,-504C2543.33,-504 2329.67,-504 2329.67,-504 2325.83,-504 2322,-500.17 2322,-496.33 2322,-496.33 2322,-488.67 2322,-488.67 2322,-484.83 2325.83,-481 2329.67,-481 2329.67,-481 2543.33,-481 2543.33,-481 2547.17,-481 2551,-484.83 2551,-488.67 2551,-488.67 2551,-496.33 2551,-496.33 2551,-500.17 2547.17,-504 2543.33,-504"/>
<text text-anchor="middle" x="2436.5" y="-488.8" font-family="Arial" font-size="14.00" fill="#cfffac">../components/product&#45;list/Sizes.js</text>
</g>
<!-- ../components/product&#45;detail/ProductInfo.js&#45;&gt;../components/product&#45;list/Sizes.js -->
<g id="edge8" class="edge">
<title>../components/product&#45;detail/ProductInfo.js&#45;&gt;../components/product&#45;list/Sizes.js</title>
<path fill="none" stroke="#757575" d="M2252.18,-676.92C2259.72,-673.04 2266.76,-668.29 2273,-662.5 2321.35,-617.62 2261.38,-564.15 2309,-518.5 2312.65,-515 2316.64,-511.91 2320.88,-509.2"/>
<polygon fill="#757575" stroke="#757575" points="2322.91,-512.07 2329.91,-504.13 2319.48,-505.97 2322.91,-512.07"/>
</g>
<!-- ../components/product&#45;list/Swatches.js -->
<g id="node13" class="node">
<title>../components/product&#45;list/Swatches.js</title>
<path fill="none" stroke="#cfffac" d="M2556.33,-463C2556.33,-463 2316.67,-463 2316.67,-463 2312.83,-463 2309,-459.17 2309,-455.33 2309,-455.33 2309,-447.67 2309,-447.67 2309,-443.83 2312.83,-440 2316.67,-440 2316.67,-440 2556.33,-440 2556.33,-440 2560.17,-440 2564,-443.83 2564,-447.67 2564,-447.67 2564,-455.33 2564,-455.33 2564,-459.17 2560.17,-463 2556.33,-463"/>
<text text-anchor="middle" x="2436.5" y="-447.8" font-family="Arial" font-size="14.00" fill="#cfffac">../components/product&#45;list/Swatches.js</text>
</g>
<!-- ../components/product&#45;detail/ProductInfo.js&#45;&gt;../components/product&#45;list/Swatches.js -->
<g id="edge9" class="edge">
<title>../components/product&#45;detail/ProductInfo.js&#45;&gt;../components/product&#45;list/Swatches.js</title>
<path fill="none" stroke="#757575" d="M2139.08,-676.86C2169.52,-655.39 2233.62,-606.75 2273,-552.5 2296.14,-520.62 2277.75,-495.49 2309,-471.5 2310.42,-470.41 2311.89,-469.36 2313.38,-468.36"/>
<polygon fill="#757575" stroke="#757575" points="2315.41,-471.23 2322.26,-463.15 2311.86,-465.2 2315.41,-471.23"/>
</g>
<!-- ../components/ui/favorite.js -->
<g id="node14" class="node">
<title>../components/ui/favorite.js</title>
<path fill="none" stroke="#c6c5fe" d="M2812.33,-978C2812.33,-978 2644.67,-978 2644.67,-978 2640.83,-978 2637,-974.17 2637,-970.33 2637,-970.33 2637,-962.67 2637,-962.67 2637,-958.83 2640.83,-955 2644.67,-955 2644.67,-955 2812.33,-955 2812.33,-955 2816.17,-955 2820,-958.83 2820,-962.67 2820,-962.67 2820,-970.33 2820,-970.33 2820,-974.17 2816.17,-978 2812.33,-978"/>
<text text-anchor="middle" x="2728.5" y="-962.8" font-family="Arial" font-size="14.00" fill="#c6c5fe">../components/ui/favorite.js</text>
</g>
<!-- ../components/product&#45;detail/ProductInfo.js&#45;&gt;../components/ui/favorite.js -->
<g id="edge10" class="edge">
<title>../components/product&#45;detail/ProductInfo.js&#45;&gt;../components/ui/favorite.js</title>
<path fill="none" stroke="#757575" d="M2135.11,-700.37C2164.35,-726.29 2237.91,-788.61 2309,-825.5 2429.82,-888.19 2584.33,-931.74 2667.7,-952.55"/>
<polygon fill="#757575" stroke="#757575" points="2666.96,-955.97 2677.51,-954.97 2668.64,-949.18 2666.96,-955.97"/>
</g>
<!-- ../components/ui/subscription.js -->
<g id="node15" class="node">
<title>../components/ui/subscription.js</title>
<path fill="none" stroke="#c6c5fe" d="M2534.83,-584C2534.83,-584 2338.17,-584 2338.17,-584 2334.33,-584 2330.5,-580.17 2330.5,-576.33 2330.5,-576.33 2330.5,-568.67 2330.5,-568.67 2330.5,-564.83 2334.33,-561 2338.17,-561 2338.17,-561 2534.83,-561 2534.83,-561 2538.67,-561 2542.5,-564.83 2542.5,-568.67 2542.5,-568.67 2542.5,-576.33 2542.5,-576.33 2542.5,-580.17 2538.67,-584 2534.83,-584"/>
<text text-anchor="middle" x="2436.5" y="-568.8" font-family="Arial" font-size="14.00" fill="#c6c5fe">../components/ui/subscription.js</text>
</g>
<!-- ../components/product&#45;detail/ProductInfo.js&#45;&gt;../components/ui/subscription.js -->
<g id="edge11" class="edge">
<title>../components/product&#45;detail/ProductInfo.js&#45;&gt;../components/ui/subscription.js</title>
<path fill="none" stroke="#757575" d="M2217.89,-676.97C2236.46,-673.35 2255.56,-668.63 2273,-662.5 2324.78,-644.29 2379.54,-610.51 2410.42,-589.92"/>
<polygon fill="#757575" stroke="#757575" points="2412.52,-592.73 2418.85,-584.23 2408.6,-586.92 2412.52,-592.73"/>
</g>
<!-- ../contexts/actions/index.js -->
<g id="node16" class="node">
<title>../contexts/actions/index.js</title>
<path fill="none" stroke="#c6c5fe" d="M3595.83,-741C3595.83,-741 3431.17,-741 3431.17,-741 3427.33,-741 3423.5,-737.17 3423.5,-733.33 3423.5,-733.33 3423.5,-725.67 3423.5,-725.67 3423.5,-721.83 3427.33,-718 3431.17,-718 3431.17,-718 3595.83,-718 3595.83,-718 3599.67,-718 3603.5,-721.83 3603.5,-725.67 3603.5,-725.67 3603.5,-733.33 3603.5,-733.33 3603.5,-737.17 3599.67,-741 3595.83,-741"/>
<text text-anchor="middle" x="3513.5" y="-725.8" font-family="Arial" font-size="14.00" fill="#c6c5fe">../contexts/actions/index.js</text>
</g>
<!-- ../components/product&#45;detail/ProductInfo.js&#45;&gt;../contexts/actions/index.js -->
<g id="edge12" class="edge">
<title>../components/product&#45;detail/ProductInfo.js&#45;&gt;../contexts/actions/index.js</title>
<path fill="none" stroke="#757575" d="M2258.81,-700.02C2275.71,-701.28 2292.75,-702.48 2309,-703.5 2768.79,-732.49 2884.46,-750.86 3345,-738.5 3367.09,-737.91 3390.8,-736.87 3413.23,-735.72"/>
<polygon fill="#757575" stroke="#757575" points="3413.63,-739.2 3423.43,-735.18 3413.26,-732.21 3413.63,-739.2"/>
</g>
<!-- ../contexts/index.js -->
<g id="node17" class="node">
<title>../contexts/index.js</title>
<path fill="none" stroke="#c6c5fe" d="M3022.33,-620C3022.33,-620 2905.67,-620 2905.67,-620 2901.83,-620 2898,-616.17 2898,-612.33 2898,-612.33 2898,-604.67 2898,-604.67 2898,-600.83 2901.83,-597 2905.67,-597 2905.67,-597 3022.33,-597 3022.33,-597 3026.17,-597 3030,-600.83 3030,-604.67 3030,-604.67 3030,-612.33 3030,-612.33 3030,-616.17 3026.17,-620 3022.33,-620"/>
<text text-anchor="middle" x="2964" y="-604.8" font-family="Arial" font-size="14.00" fill="#c6c5fe">../contexts/index.js</text>
</g>
<!-- ../components/product&#45;detail/ProductInfo.js&#45;&gt;../contexts/index.js -->
<g id="edge13" class="edge">
<title>../components/product&#45;detail/ProductInfo.js&#45;&gt;../contexts/index.js</title>
<path fill="none" stroke="#757575" d="M2250.66,-676.94C2258.71,-673.09 2266.26,-668.33 2273,-662.5 2312.2,-628.54 2269.34,-584.92 2309,-551.5 2321.49,-540.97 2583.71,-510.67 2600,-509.5 2713.93,-501.32 2750.74,-467.6 2857,-509.5 2897.27,-525.38 2931.25,-564.57 2949.23,-588.6"/>
<polygon fill="#757575" stroke="#757575" points="2946.41,-590.67 2955.11,-596.7 2952.07,-586.56 2946.41,-590.67"/>
</g>
<!-- ../components/product&#45;list/QuickView.js -->
<g id="node36" class="node">
<title>../components/product&#45;list/QuickView.js</title>
<path fill="none" stroke="#ff6c60" d="M1925.33,-546C1925.33,-546 1680.67,-546 1680.67,-546 1676.83,-546 1673,-542.17 1673,-538.33 1673,-538.33 1673,-530.67 1673,-530.67 1673,-526.83 1676.83,-523 1680.67,-523 1680.67,-523 1925.33,-523 1925.33,-523 1929.17,-523 1933,-526.83 1933,-530.67 1933,-530.67 1933,-538.33 1933,-538.33 1933,-542.17 1929.17,-546 1925.33,-546"/>
<text text-anchor="middle" x="1803" y="-530.8" font-family="Arial" font-size="14.00" fill="#ff6c60">../components/product&#45;list/QuickView.js</text>
</g>
<!-- ../components/product&#45;list/ProductFrameGrid.js&#45;&gt;../components/product&#45;list/QuickView.js -->
<g id="edge38" class="edge">
<title>../components/product&#45;list/ProductFrameGrid.js&#45;&gt;../components/product&#45;list/QuickView.js</title>
<path fill="none" stroke="#757575" d="M1520.85,-449.01C1578.97,-466.68 1690.14,-500.49 1753.9,-519.87"/>
<polygon fill="#757575" stroke="#757575" points="1753.12,-523.3 1763.71,-522.86 1755.16,-516.6 1753.12,-523.3"/>
</g>
<!-- ../images/product&#45;frame&#45;grid.svg -->
<g id="node37" class="node">
<title>../images/product&#45;frame&#45;grid.svg</title>
<path fill="none" stroke="#cfffac" d="M1904.33,-449C1904.33,-449 1701.67,-449 1701.67,-449 1697.83,-449 1694,-445.17 1694,-441.33 1694,-441.33 1694,-433.67 1694,-433.67 1694,-429.83 1697.83,-426 1701.67,-426 1701.67,-426 1904.33,-426 1904.33,-426 1908.17,-426 1912,-429.83 1912,-433.67 1912,-433.67 1912,-441.33 1912,-441.33 1912,-445.17 1908.17,-449 1904.33,-449"/>
<text text-anchor="middle" x="1803" y="-433.8" font-family="Arial" font-size="14.00" fill="#cfffac">../images/product&#45;frame&#45;grid.svg</text>
</g>
<!-- ../components/product&#45;list/ProductFrameGrid.js&#45;&gt;../images/product&#45;frame&#45;grid.svg -->
<g id="edge39" class="edge">
<title>../components/product&#45;list/ProductFrameGrid.js&#45;&gt;../images/product&#45;frame&#45;grid.svg</title>
<path fill="none" stroke="#757575" d="M1637.36,-437.5C1652.87,-437.5 1668.44,-437.5 1683.49,-437.5"/>
<polygon fill="#757575" stroke="#757575" points="1683.81,-441 1693.81,-437.5 1683.81,-434 1683.81,-441"/>
</g>
<!-- ../components/product&#45;list/QtyButton.js&#45;&gt;../contexts/actions/index.js -->
<g id="edge47" class="edge">
<title>../components/product&#45;list/QtyButton.js&#45;&gt;../contexts/actions/index.js</title>
<path fill="none" stroke="#757575" d="M2811.69,-701.01C2837.66,-704.26 2866.48,-707.45 2893,-709.5 3076.27,-723.64 3290.8,-727.81 3413.26,-729.03"/>
<polygon fill="#757575" stroke="#757575" points="3413.34,-732.53 3423.37,-729.12 3413.4,-725.53 3413.34,-732.53"/>
</g>
<!-- ../components/product&#45;list/QtyButton.js&#45;&gt;../contexts/index.js -->
<g id="edge48" class="edge">
<title>../components/product&#45;list/QtyButton.js&#45;&gt;../contexts/index.js</title>
<path fill="none" stroke="#757575" d="M2762.95,-677.89C2804.31,-663.55 2874.76,-639.11 2920.06,-623.4"/>
<polygon fill="#757575" stroke="#757575" points="2921.31,-626.67 2929.61,-620.08 2919.01,-620.05 2921.31,-626.67"/>
</g>
<!-- ../images/Cart.js -->
<g id="node39" class="node">
<title>../images/Cart.js</title>
<path fill="none" stroke="#cfffac" d="M3015.33,-701C3015.33,-701 2912.67,-701 2912.67,-701 2908.83,-701 2905,-697.17 2905,-693.33 2905,-693.33 2905,-685.67 2905,-685.67 2905,-681.83 2908.83,-678 2912.67,-678 2912.67,-678 3015.33,-678 3015.33,-678 3019.17,-678 3023,-681.83 3023,-685.67 3023,-685.67 3023,-693.33 3023,-693.33 3023,-697.17 3019.17,-701 3015.33,-701"/>
<text text-anchor="middle" x="2964" y="-685.8" font-family="Arial" font-size="14.00" fill="#cfffac">../images/Cart.js</text>
</g>
<!-- ../components/product&#45;list/QtyButton.js&#45;&gt;../images/Cart.js -->
<g id="edge49" class="edge">
<title>../components/product&#45;list/QtyButton.js&#45;&gt;../images/Cart.js</title>
<path fill="none" stroke="#757575" d="M2857.18,-689.5C2870.03,-689.5 2882.7,-689.5 2894.56,-689.5"/>
<polygon fill="#757575" stroke="#757575" points="2894.76,-693 2904.76,-689.5 2894.76,-686 2894.76,-693"/>
</g>
<!-- ../components/ui/favorite.js&#45;&gt;../contexts/actions/index.js -->
<g id="edge59" class="edge">
<title>../components/ui/favorite.js&#45;&gt;../contexts/actions/index.js</title>
<path fill="none" stroke="#757575" d="M2820.05,-969.46C2881.55,-969.39 2964.25,-965.2 3035,-947.5 3216.48,-902.09 3413.95,-789.33 3485.07,-746.43"/>
<polygon fill="#757575" stroke="#757575" points="3487.14,-749.27 3493.87,-741.09 3483.51,-743.29 3487.14,-749.27"/>
</g>
<!-- ../components/ui/favorite.js&#45;&gt;../contexts/index.js -->
<g id="edge60" class="edge">
<title>../components/ui/favorite.js&#45;&gt;../contexts/index.js</title>
<path fill="none" stroke="#757575" d="M2820.11,-962.51C2834.04,-958.09 2847.06,-951.16 2857,-940.5 2940.18,-851.33 2834.87,-775.7 2893,-668.5 2902.5,-650.97 2919.33,-636.3 2934.1,-625.85"/>
<polygon fill="#757575" stroke="#757575" points="2936.16,-628.69 2942.49,-620.2 2932.25,-622.88 2936.16,-628.69"/>
</g>
<!-- ../images/Favorite.js -->
<g id="node43" class="node">
<title>../images/Favorite.js</title>
<path fill="none" stroke="#cfffac" d="M3027.33,-938C3027.33,-938 2900.67,-938 2900.67,-938 2896.83,-938 2893,-934.17 2893,-930.33 2893,-930.33 2893,-922.67 2893,-922.67 2893,-918.83 2896.83,-915 2900.67,-915 2900.67,-915 3027.33,-915 3027.33,-915 3031.17,-915 3035,-918.83 3035,-922.67 3035,-922.67 3035,-930.33 3035,-930.33 3035,-934.17 3031.17,-938 3027.33,-938"/>
<text text-anchor="middle" x="2964" y="-922.8" font-family="Arial" font-size="14.00" fill="#cfffac">../images/Favorite.js</text>
</g>
<!-- ../components/ui/favorite.js&#45;&gt;../images/Favorite.js -->
<g id="edge61" class="edge">
<title>../components/ui/favorite.js&#45;&gt;../images/Favorite.js</title>
<path fill="none" stroke="#757575" d="M2796.72,-954.98C2824.56,-950.21 2857.02,-944.66 2885.82,-939.72"/>
<polygon fill="#757575" stroke="#757575" points="2886.58,-943.14 2895.85,-938 2885.4,-936.24 2886.58,-943.14"/>
</g>
<!-- ../components/ui/subscription.js&#45;&gt;../components/product&#45;list/QtyButton.js -->
<g id="edge73" class="edge">
<title>../components/ui/subscription.js&#45;&gt;../components/product&#45;list/QtyButton.js</title>
<path fill="none" stroke="#757575" d="M2536.76,-584.07C2546.49,-587.74 2555.78,-592.46 2564,-598.5 2590.61,-618.06 2573.38,-643.96 2600,-663.5 2605.51,-667.54 2611.49,-670.99 2617.76,-673.93"/>
<polygon fill="#757575" stroke="#757575" points="2616.56,-677.22 2627.14,-677.89 2619.28,-670.77 2616.56,-677.22"/>
</g>
<!-- ../components/ui/subscription.js&#45;&gt;../contexts/actions/index.js -->
<g id="edge75" class="edge">
<title>../components/ui/subscription.js&#45;&gt;../contexts/actions/index.js</title>
<path fill="none" stroke="#757575" d="M2478.63,-584C2511.31,-592.8 2558.3,-604.72 2600,-612.5 2604.99,-613.43 3178.39,-686.78 3413.58,-716.85"/>
<polygon fill="#757575" stroke="#757575" points="3413.13,-720.32 3423.5,-718.12 3414.02,-713.38 3413.13,-720.32"/>
</g>
<!-- ../components/ui/subscription.js&#45;&gt;../contexts/index.js -->
<g id="edge76" class="edge">
<title>../components/ui/subscription.js&#45;&gt;../contexts/index.js</title>
<path fill="none" stroke="#757575" d="M2526.37,-584.02C2550.24,-586.81 2576.08,-589.54 2600,-591.5 2699.39,-599.63 2814.43,-604.2 2887.91,-606.51"/>
<polygon fill="#757575" stroke="#757575" points="2887.89,-610.01 2898,-606.82 2888.11,-603.01 2887.89,-610.01"/>
</g>
<!-- ../components/ui/select&#45;frequency.js -->
<g id="node54" class="node">
<title>../components/ui/select&#45;frequency.js</title>
<path fill="none" stroke="#cfffac" d="M2840.33,-542C2840.33,-542 2616.67,-542 2616.67,-542 2612.83,-542 2609,-538.17 2609,-534.33 2609,-534.33 2609,-526.67 2609,-526.67 2609,-522.83 2612.83,-519 2616.67,-519 2616.67,-519 2840.33,-519 2840.33,-519 2844.17,-519 2848,-522.83 2848,-526.67 2848,-526.67 2848,-534.33 2848,-534.33 2848,-538.17 2844.17,-542 2840.33,-542"/>
<text text-anchor="middle" x="2728.5" y="-526.8" font-family="Arial" font-size="14.00" fill="#cfffac">../components/ui/select&#45;frequency.js</text>
</g>
<!-- ../components/ui/subscription.js&#45;&gt;../components/ui/select&#45;frequency.js -->
<g id="edge74" class="edge">
<title>../components/ui/subscription.js&#45;&gt;../components/ui/select&#45;frequency.js</title>
<path fill="none" stroke="#757575" d="M2517.13,-560.97C2554.53,-555.55 2599.27,-549.07 2637.86,-543.48"/>
<polygon fill="#757575" stroke="#757575" points="2638.66,-546.9 2648.05,-542.01 2637.65,-539.98 2638.66,-546.9"/>
</g>
<!-- ../images/Subscription.js -->
<g id="node56" class="node">
<title>../images/Subscription.js</title>
<path fill="none" stroke="#cfffac" d="M2804.83,-583C2804.83,-583 2652.17,-583 2652.17,-583 2648.33,-583 2644.5,-579.17 2644.5,-575.33 2644.5,-575.33 2644.5,-567.67 2644.5,-567.67 2644.5,-563.83 2648.33,-560 2652.17,-560 2652.17,-560 2804.83,-560 2804.83,-560 2808.67,-560 2812.5,-563.83 2812.5,-567.67 2812.5,-567.67 2812.5,-575.33 2812.5,-575.33 2812.5,-579.17 2808.67,-583 2804.83,-583"/>
<text text-anchor="middle" x="2728.5" y="-567.8" font-family="Arial" font-size="14.00" fill="#cfffac">../images/Subscription.js</text>
</g>
<!-- ../components/ui/subscription.js&#45;&gt;../images/Subscription.js -->
<g id="edge77" class="edge">
<title>../components/ui/subscription.js&#45;&gt;../images/Subscription.js</title>
<path fill="none" stroke="#757575" d="M2542.61,-572.14C2572.48,-572.03 2604.8,-571.92 2633.93,-571.82"/>
<polygon fill="#757575" stroke="#757575" points="2634.11,-575.32 2644.1,-571.79 2634.08,-568.32 2634.11,-575.32"/>
</g>
<!-- ../contexts/actions/cart&#45;actions.js -->
<g id="node58" class="node">
<title>../contexts/actions/cart&#45;actions.js</title>
<path fill="none" stroke="#c6c5fe" d="M3909.83,-782C3909.83,-782 3706.17,-782 3706.17,-782 3702.33,-782 3698.5,-778.17 3698.5,-774.33 3698.5,-774.33 3698.5,-766.67 3698.5,-766.67 3698.5,-762.83 3702.33,-759 3706.17,-759 3706.17,-759 3909.83,-759 3909.83,-759 3913.67,-759 3917.5,-762.83 3917.5,-766.67 3917.5,-766.67 3917.5,-774.33 3917.5,-774.33 3917.5,-778.17 3913.67,-782 3909.83,-782"/>
<text text-anchor="middle" x="3808" y="-766.8" font-family="Arial" font-size="14.00" fill="#c6c5fe">../contexts/actions/cart&#45;actions.js</text>
</g>
<!-- ../contexts/actions/index.js&#45;&gt;../contexts/actions/cart&#45;actions.js -->
<g id="edge80" class="edge">
<title>../contexts/actions/index.js&#45;&gt;../contexts/actions/cart&#45;actions.js</title>
<path fill="none" stroke="#757575" d="M3596.76,-741.03C3633.52,-746.18 3677,-752.28 3714.85,-757.58"/>
<polygon fill="#757575" stroke="#757575" points="3714.47,-761.06 3724.86,-758.99 3715.44,-754.13 3714.47,-761.06"/>
</g>
<!-- ../contexts/actions/feedback&#45;actions.js -->
<g id="node59" class="node">
<title>../contexts/actions/feedback&#45;actions.js</title>
<path fill="none" stroke="#c6c5fe" d="M3926.33,-741C3926.33,-741 3689.67,-741 3689.67,-741 3685.83,-741 3682,-737.17 3682,-733.33 3682,-733.33 3682,-725.67 3682,-725.67 3682,-721.83 3685.83,-718 3689.67,-718 3689.67,-718 3926.33,-718 3926.33,-718 3930.17,-718 3934,-721.83 3934,-725.67 3934,-725.67 3934,-733.33 3934,-733.33 3934,-737.17 3930.17,-741 3926.33,-741"/>
<text text-anchor="middle" x="3808" y="-725.8" font-family="Arial" font-size="14.00" fill="#c6c5fe">../contexts/actions/feedback&#45;actions.js</text>
</g>
<!-- ../contexts/actions/index.js&#45;&gt;../contexts/actions/feedback&#45;actions.js -->
<g id="edge81" class="edge">
<title>../contexts/actions/index.js&#45;&gt;../contexts/actions/feedback&#45;actions.js</title>
<path fill="none" stroke="#757575" d="M3603.85,-729.5C3625.29,-729.5 3648.66,-729.5 3671.67,-729.5"/>
<polygon fill="#757575" stroke="#757575" points="3671.86,-733 3681.86,-729.5 3671.86,-726 3671.86,-733"/>
</g>
<!-- ../contexts/actions/user&#45;actions.js -->
<g id="node60" class="node">
<title>../contexts/actions/user&#45;actions.js</title>
<path fill="none" stroke="#c6c5fe" d="M3911.83,-700C3911.83,-700 3704.17,-700 3704.17,-700 3700.33,-700 3696.5,-696.17 3696.5,-692.33 3696.5,-692.33 3696.5,-684.67 3696.5,-684.67 3696.5,-680.83 3700.33,-677 3704.17,-677 3704.17,-677 3911.83,-677 3911.83,-677 3915.67,-677 3919.5,-680.83 3919.5,-684.67 3919.5,-684.67 3919.5,-692.33 3919.5,-692.33 3919.5,-696.17 3915.67,-700 3911.83,-700"/>
<text text-anchor="middle" x="3808" y="-684.8" font-family="Arial" font-size="14.00" fill="#c6c5fe">../contexts/actions/user&#45;actions.js</text>
</g>
<!-- ../contexts/actions/index.js&#45;&gt;../contexts/actions/user&#45;actions.js -->
<g id="edge82" class="edge">
<title>../contexts/actions/index.js&#45;&gt;../contexts/actions/user&#45;actions.js</title>
<path fill="none" stroke="#757575" d="M3596.76,-717.97C3633.52,-712.82 3677,-706.72 3714.85,-701.42"/>
<polygon fill="#757575" stroke="#757575" points="3715.44,-704.87 3724.86,-700.01 3714.47,-697.94 3715.44,-704.87"/>
</g>
<!-- ../contexts/wrappers/CartWrapper.js -->
<g id="node61" class="node">
<title>../contexts/wrappers/CartWrapper.js</title>
<path fill="none" stroke="#c6c5fe" d="M3319.83,-578C3319.83,-578 3096.17,-578 3096.17,-578 3092.33,-578 3088.5,-574.17 3088.5,-570.33 3088.5,-570.33 3088.5,-562.67 3088.5,-562.67 3088.5,-558.83 3092.33,-555 3096.17,-555 3096.17,-555 3319.83,-555 3319.83,-555 3323.67,-555 3327.5,-558.83 3327.5,-562.67 3327.5,-562.67 3327.5,-570.33 3327.5,-570.33 3327.5,-574.17 3323.67,-578 3319.83,-578"/>
<text text-anchor="middle" x="3208" y="-562.8" font-family="Arial" font-size="14.00" fill="#c6c5fe">../contexts/wrappers/CartWrapper.js</text>
</g>
<!-- ../contexts/index.js&#45;&gt;../contexts/wrappers/CartWrapper.js -->
<g id="edge84" class="edge">
<title>../contexts/index.js&#45;&gt;../contexts/wrappers/CartWrapper.js</title>
<path fill="none" stroke="#757575" d="M3017.45,-596.98C3034.49,-593.41 3053.51,-589.6 3071,-586.5 3084.52,-584.1 3098.83,-581.78 3112.9,-579.6"/>
<polygon fill="#757575" stroke="#757575" points="3113.72,-583.02 3123.08,-578.05 3112.67,-576.1 3113.72,-583.02"/>
</g>
<!-- ../contexts/wrappers/FeedbackWrapper.js -->
<g id="node62" class="node">
<title>../contexts/wrappers/FeedbackWrapper.js</title>
<path fill="none" stroke="#c6c5fe" d="M3337.33,-619C3337.33,-619 3078.67,-619 3078.67,-619 3074.83,-619 3071,-615.17 3071,-611.33 3071,-611.33 3071,-603.67 3071,-603.67 3071,-599.83 3074.83,-596 3078.67,-596 3078.67,-596 3337.33,-596 3337.33,-596 3341.17,-596 3345,-599.83 3345,-603.67 3345,-603.67 3345,-611.33 3345,-611.33 3345,-615.17 3341.17,-619 3337.33,-619"/>
<text text-anchor="middle" x="3208" y="-603.8" font-family="Arial" font-size="14.00" fill="#c6c5fe">../contexts/wrappers/FeedbackWrapper.js</text>
</g>
<!-- ../contexts/index.js&#45;&gt;../contexts/wrappers/FeedbackWrapper.js -->
<g id="edge85" class="edge">
<title>../contexts/index.js&#45;&gt;../contexts/wrappers/FeedbackWrapper.js</title>
<path fill="none" stroke="#757575" d="M3030.17,-608.23C3039.82,-608.19 3050.09,-608.15 3060.62,-608.1"/>
<polygon fill="#757575" stroke="#757575" points="3060.8,-611.6 3070.78,-608.06 3060.77,-604.6 3060.8,-611.6"/>
</g>
<!-- ../contexts/wrappers/UserWrapper.js -->
<g id="node63" class="node">
<title>../contexts/wrappers/UserWrapper.js</title>
<path fill="none" stroke="#c6c5fe" d="M3321.33,-660C3321.33,-660 3094.67,-660 3094.67,-660 3090.83,-660 3087,-656.17 3087,-652.33 3087,-652.33 3087,-644.67 3087,-644.67 3087,-640.83 3090.83,-637 3094.67,-637 3094.67,-637 3321.33,-637 3321.33,-637 3325.17,-637 3329,-640.83 3329,-644.67 3329,-644.67 3329,-652.33 3329,-652.33 3329,-656.17 3325.17,-660 3321.33,-660"/>
<text text-anchor="middle" x="3208" y="-644.8" font-family="Arial" font-size="14.00" fill="#c6c5fe">../contexts/wrappers/UserWrapper.js</text>
</g>
<!-- ../contexts/index.js&#45;&gt;../contexts/wrappers/UserWrapper.js -->
<g id="edge86" class="edge">
<title>../contexts/index.js&#45;&gt;../contexts/wrappers/UserWrapper.js</title>
<path fill="none" stroke="#757575" d="M3027.73,-620C3041.95,-622.54 3056.98,-625.16 3071,-627.5 3086.9,-630.15 3103.88,-632.87 3120.25,-635.42"/>
<polygon fill="#757575" stroke="#757575" points="3119.93,-638.92 3130.35,-637 3121,-632 3119.93,-638.92"/>
</g>
<!-- ../components/product&#45;detail/ProductReview.js -->
<g id="node18" class="node">
<title>../components/product&#45;detail/ProductReview.js</title>
<path fill="none" stroke="#c6c5fe" d="M2265.33,-1018C2265.33,-1018 1976.67,-1018 1976.67,-1018 1972.83,-1018 1969,-1014.17 1969,-1010.33 1969,-1010.33 1969,-1002.67 1969,-1002.67 1969,-998.83 1972.83,-995 1976.67,-995 1976.67,-995 2265.33,-995 2265.33,-995 2269.17,-995 2273,-998.83 2273,-1002.67 2273,-1002.67 2273,-1010.33 2273,-1010.33 2273,-1014.17 2269.17,-1018 2265.33,-1018"/>
<text text-anchor="middle" x="2121" y="-1002.8" font-family="Arial" font-size="14.00" fill="#c6c5fe">../components/product&#45;detail/ProductReview.js</text>
</g>
<!-- ../components/product&#45;detail/ProductReview.js&#45;&gt;../components/auth/Fields.js -->
<g id="edge14" class="edge">
<title>../components/product&#45;detail/ProductReview.js&#45;&gt;../components/auth/Fields.js</title>
<path fill="none" stroke="#757575" d="M2212.26,-1018.02C2250.78,-1022.93 2295.87,-1028.68 2335.41,-1033.73"/>
<polygon fill="#757575" stroke="#757575" points="2334.98,-1037.2 2345.34,-1035 2335.86,-1030.26 2334.98,-1037.2"/>
</g>
<!-- ../components/product&#45;detail/ProductReview.js&#45;&gt;../components/home/Rating.js -->
<g id="edge15" class="edge">
<title>../components/product&#45;detail/ProductReview.js&#45;&gt;../components/home/Rating.js</title>
<path fill="none" stroke="#757575" d="M2140.21,-994.77C2193.15,-960.66 2347.16,-861.42 2409.17,-821.46"/>
<polygon fill="#757575" stroke="#757575" points="2411.12,-824.37 2417.63,-816.01 2407.33,-818.49 2411.12,-824.37"/>
</g>
<!-- ../components/product&#45;detail/ProductReview.js&#45;&gt;../contexts/actions/index.js -->
<g id="edge16" class="edge">
<title>../components/product&#45;detail/ProductReview.js&#45;&gt;../contexts/actions/index.js</title>
<path fill="none" stroke="#757575" d="M2273.17,-1006.5C2395.66,-1006.5 2572.71,-1006.5 2727.5,-1006.5 2727.5,-1006.5 2727.5,-1006.5 2965,-1006.5 3141.07,-1006.5 3193.28,-983.85 3345,-894.5 3411.51,-855.33 3471.16,-784 3497.79,-749.39"/>
<polygon fill="#757575" stroke="#757575" points="3500.87,-751.12 3504.12,-741.04 3495.29,-746.89 3500.87,-751.12"/>
</g>
<!-- ../components/product&#45;detail/ProductReview.js&#45;&gt;../contexts/index.js -->
<g id="edge17" class="edge">
<title>../components/product&#45;detail/ProductReview.js&#45;&gt;../contexts/index.js</title>
<path fill="none" stroke="#757575" d="M2212.77,-994.98C2408.11,-970.11 2851.28,-913.13 2857,-907.5 2933.55,-832.14 2840.95,-762.47 2893,-668.5 2902.72,-650.94 2919.72,-636.19 2934.52,-625.71"/>
<polygon fill="#757575" stroke="#757575" points="2936.59,-628.54 2942.92,-620.04 2932.67,-622.73 2936.59,-628.54"/>
</g>
<!-- ../components/product&#45;detail/ProductReviews.js -->
<g id="node19" class="node">
<title>../components/product&#45;detail/ProductReviews.js</title>
<path fill="none" stroke="#c6c5fe" d="M455.33,-507C455.33,-507 158.67,-507 158.67,-507 154.83,-507 151,-503.17 151,-499.33 151,-499.33 151,-491.67 151,-491.67 151,-487.83 154.83,-484 158.67,-484 158.67,-484 455.33,-484 455.33,-484 459.17,-484 463,-487.83 463,-491.67 463,-491.67 463,-499.33 463,-499.33 463,-503.17 459.17,-507 455.33,-507"/>
<text text-anchor="middle" x="307" y="-491.8" font-family="Arial" font-size="14.00" fill="#c6c5fe">../components/product&#45;detail/ProductReviews.js</text>
</g>
<!-- ../components/product&#45;detail/ProductReviews.js&#45;&gt;../apollo/queries.js -->
<g id="edge18" class="edge">
<title>../components/product&#45;detail/ProductReviews.js&#45;&gt;../apollo/queries.js</title>
<path fill="none" stroke="#757575" d="M463.11,-495.5C639.71,-495.5 920.87,-495.5 1053.56,-495.5"/>
<polygon fill="#757575" stroke="#757575" points="1053.63,-499 1063.63,-495.5 1053.63,-492 1053.63,-499"/>
</g>
<!-- ../components/product&#45;detail/ProductReviews.js&#45;&gt;../contexts/index.js -->
<g id="edge20" class="edge">
<title>../components/product&#45;detail/ProductReviews.js&#45;&gt;../contexts/index.js</title>
<path fill="none" stroke="#757575" d="M354.78,-483.97C479.49,-454.28 830.67,-377.5 1127.5,-377.5 1127.5,-377.5 1127.5,-377.5 1483,-377.5 1964.02,-377.5 2086.45,-372.8 2564,-430.5 2695.54,-446.39 2742.18,-419.37 2857,-485.5 2900.27,-510.42 2934.4,-559.73 2951.33,-587.76"/>
<polygon fill="#757575" stroke="#757575" points="2948.51,-589.86 2956.59,-596.71 2954.54,-586.31 2948.51,-589.86"/>
</g>
<!-- ../components/product&#45;detail/ProductReviews.js&#45;&gt;../components/product&#45;detail/ProductReview.js -->
<g id="edge19" class="edge">
<title>../components/product&#45;detail/ProductReviews.js&#45;&gt;../components/product&#45;detail/ProductReview.js</title>
<path fill="none" stroke="#757575" d="M449.5,-507.17C454.21,-509.61 458.73,-512.38 463,-515.5 580.48,-601.41 636.46,-1087.5 782,-1087.5 782,-1087.5 782,-1087.5 1483,-1087.5 1694.29,-1087.5 1941.87,-1043.1 2056.2,-1020.05"/>
<polygon fill="#757575" stroke="#757575" points="2057.08,-1023.44 2066.18,-1018.02 2055.69,-1016.58 2057.08,-1023.44"/>
</g>
<!-- ProductList.js -->
<g id="node20" class="node">
<title>ProductList.js</title>
<path fill="none" stroke="#c6c5fe" d="M592.33,-547C592.33,-547 506.67,-547 506.67,-547 502.83,-547 499,-543.17 499,-539.33 499,-539.33 499,-531.67 499,-531.67 499,-527.83 502.83,-524 506.67,-524 506.67,-524 592.33,-524 592.33,-524 596.17,-524 600,-527.83 600,-531.67 600,-531.67 600,-539.33 600,-539.33 600,-543.17 596.17,-547 592.33,-547"/>
<text text-anchor="middle" x="549.5" y="-531.8" font-family="Arial" font-size="14.00" fill="#c6c5fe">ProductList.js</text>
</g>
<!-- ../components/product&#45;detail/ProductReviews.js&#45;&gt;ProductList.js -->
<g id="edge21" class="edge">
<title>../components/product&#45;detail/ProductReviews.js&#45;&gt;ProductList.js</title>
<path fill="none" stroke="#757575" d="M409.12,-507.04C427.11,-509.52 445.65,-512.36 463,-515.5 472.79,-517.27 483.14,-519.44 493.13,-521.69"/>
<polygon fill="#757575" stroke="#757575" points="492.45,-525.12 502.98,-523.95 494.01,-518.3 492.45,-525.12"/>
</g>
<!-- ../components/product&#45;list/DynamicToolbar.js -->
<g id="node27" class="node">
<title>../components/product&#45;list/DynamicToolbar.js</title>
<path fill="none" stroke="#c6c5fe" d="M922.33,-877C922.33,-877 643.67,-877 643.67,-877 639.83,-877 636,-873.17 636,-869.33 636,-869.33 636,-861.67 636,-861.67 636,-857.83 639.83,-854 643.67,-854 643.67,-854 922.33,-854 922.33,-854 926.17,-854 930,-857.83 930,-861.67 930,-861.67 930,-869.33 930,-869.33 930,-873.17 926.17,-877 922.33,-877"/>
<text text-anchor="middle" x="783" y="-861.8" font-family="Arial" font-size="14.00" fill="#c6c5fe">../components/product&#45;list/DynamicToolbar.js</text>
</g>
<!-- ProductList.js&#45;&gt;../components/product&#45;list/DynamicToolbar.js -->
<g id="edge103" class="edge">
<title>ProductList.js&#45;&gt;../components/product&#45;list/DynamicToolbar.js</title>
<path fill="none" stroke="#757575" d="M558.74,-547.24C592.99,-596.06 724.31,-783.27 767.87,-845.36"/>
<polygon fill="#757575" stroke="#757575" points="765.25,-847.72 773.86,-853.9 770.98,-843.7 765.25,-847.72"/>
</g>
<!-- ../components/product&#45;list/ListOfProducts.js -->
<g id="node34" class="node">
<title>../components/product&#45;list/ListOfProducts.js</title>
<path fill="none" stroke="#c6c5fe" d="M918.33,-588C918.33,-588 647.67,-588 647.67,-588 643.83,-588 640,-584.17 640,-580.33 640,-580.33 640,-572.67 640,-572.67 640,-568.83 643.83,-565 647.67,-565 647.67,-565 918.33,-565 918.33,-565 922.17,-565 926,-568.83 926,-572.67 926,-572.67 926,-580.33 926,-580.33 926,-584.17 922.17,-588 918.33,-588"/>
<text text-anchor="middle" x="783" y="-572.8" font-family="Arial" font-size="14.00" fill="#c6c5fe">../components/product&#45;list/ListOfProducts.js</text>
</g>
<!-- ProductList.js&#45;&gt;../components/product&#45;list/ListOfProducts.js -->
<g id="edge104" class="edge">
<title>ProductList.js&#45;&gt;../components/product&#45;list/ListOfProducts.js</title>
<path fill="none" stroke="#757575" d="M596.49,-547.03C609.24,-550.02 623.12,-553.07 636,-555.5 651.07,-558.34 667.08,-561 682.76,-563.41"/>
<polygon fill="#757575" stroke="#757575" points="682.6,-566.93 693.01,-564.96 683.64,-560 682.6,-566.93"/>
</g>
<!-- ../components/product&#45;list/SortFunctions.js -->
<g id="node42" class="node">
<title>../components/product&#45;list/SortFunctions.js</title>
<path fill="none" stroke="#cfffac" d="M915.83,-547C915.83,-547 650.17,-547 650.17,-547 646.33,-547 642.5,-543.17 642.5,-539.33 642.5,-539.33 642.5,-531.67 642.5,-531.67 642.5,-527.83 646.33,-524 650.17,-524 650.17,-524 915.83,-524 915.83,-524 919.67,-524 923.5,-527.83 923.5,-531.67 923.5,-531.67 923.5,-539.33 923.5,-539.33 923.5,-543.17 919.67,-547 915.83,-547"/>
<text text-anchor="middle" x="783" y="-531.8" font-family="Arial" font-size="14.00" fill="#cfffac">../components/product&#45;list/SortFunctions.js</text>
</g>
<!-- ProductList.js&#45;&gt;../components/product&#45;list/SortFunctions.js -->
<g id="edge105" class="edge">
<title>ProductList.js&#45;&gt;../components/product&#45;list/SortFunctions.js</title>
<path fill="none" stroke="#757575" d="M600.16,-535.5C610.03,-535.5 620.85,-535.5 632.16,-535.5"/>
<polygon fill="#757575" stroke="#757575" points="632.2,-539 642.2,-535.5 632.2,-532 632.2,-539"/>
</g>
<!-- ../components/ui/layout.js -->
<g id="node53" class="node">
<title>../components/ui/layout.js</title>
<path fill="none" stroke="#c6c5fe" d="M862.33,-289C862.33,-289 703.67,-289 703.67,-289 699.83,-289 696,-285.17 696,-281.33 696,-281.33 696,-273.67 696,-273.67 696,-269.83 699.83,-266 703.67,-266 703.67,-266 862.33,-266 862.33,-266 866.17,-266 870,-269.83 870,-273.67 870,-273.67 870,-281.33 870,-281.33 870,-285.17 866.17,-289 862.33,-289"/>
<text text-anchor="middle" x="783" y="-273.8" font-family="Arial" font-size="14.00" fill="#c6c5fe">../components/ui/layout.js</text>
</g>
<!-- ProductList.js&#45;&gt;../components/ui/layout.js -->
<g id="edge106" class="edge">
<title>ProductList.js&#45;&gt;../components/ui/layout.js</title>
<path fill="none" stroke="#757575" d="M560.07,-523.84C575.7,-504.88 607.79,-466.29 636,-434.5 680.94,-383.86 735.73,-325.92 763.68,-296.62"/>
<polygon fill="#757575" stroke="#757575" points="766.44,-298.79 770.82,-289.14 761.38,-293.96 766.44,-298.79"/>
</g>
<!-- ../components/ui/seo.js -->
<g id="node55" class="node">
<title>../components/ui/seo.js</title>
<path fill="none" stroke="#cfffac" d="M855.33,-467C855.33,-467 710.67,-467 710.67,-467 706.83,-467 703,-463.17 703,-459.33 703,-459.33 703,-451.67 703,-451.67 703,-447.83 706.83,-444 710.67,-444 710.67,-444 855.33,-444 855.33,-444 859.17,-444 863,-447.83 863,-451.67 863,-451.67 863,-459.33 863,-459.33 863,-463.17 859.17,-467 855.33,-467"/>
<text text-anchor="middle" x="783" y="-451.8" font-family="Arial" font-size="14.00" fill="#cfffac">../components/ui/seo.js</text>
</g>
<!-- ProductList.js&#45;&gt;../components/ui/seo.js -->
<g id="edge107" class="edge">
<title>ProductList.js&#45;&gt;../components/ui/seo.js</title>
<path fill="none" stroke="#757575" d="M584.16,-523.87C625.08,-509.73 694.21,-485.84 738.96,-470.37"/>
<polygon fill="#757575" stroke="#757575" points="740.36,-473.59 748.67,-467.02 738.08,-466.98 740.36,-473.59"/>
</g>
<!-- ../components/product&#45;detail/RecentlyViewed.js -->
<g id="node21" class="node">
<title>../components/product&#45;detail/RecentlyViewed.js</title>
<path fill="none" stroke="#c6c5fe" d="M1276.33,-349C1276.33,-349 980.67,-349 980.67,-349 976.83,-349 973,-345.17 973,-341.33 973,-341.33 973,-333.67 973,-333.67 973,-329.83 976.83,-326 980.67,-326 980.67,-326 1276.33,-326 1276.33,-326 1280.17,-326 1284,-329.83 1284,-333.67 1284,-333.67 1284,-341.33 1284,-341.33 1284,-345.17 1280.17,-349 1276.33,-349"/>
<text text-anchor="middle" x="1128.5" y="-333.8" font-family="Arial" font-size="14.00" fill="#c6c5fe">../components/product&#45;detail/RecentlyViewed.js</text>
</g>
<!-- ../components/product&#45;detail/RecentlyViewed.js&#45;&gt;../components/product&#45;list/ProductFrameGrid.js -->
<g id="edge22" class="edge">
<title>../components/product&#45;detail/RecentlyViewed.js&#45;&gt;../components/product&#45;list/ProductFrameGrid.js</title>
<path fill="none" stroke="#757575" d="M1170.16,-349.07C1234.67,-367.42 1360.31,-403.16 1430.49,-423.13"/>
<polygon fill="#757575" stroke="#757575" points="1429.85,-426.59 1440.43,-425.96 1431.77,-419.86 1429.85,-426.59"/>
</g>
<!-- ../hooks/index.js -->
<g id="node22" class="node">
<title>../hooks/index.js</title>
<path fill="none" stroke="#c6c5fe" d="M1532.83,-349C1532.83,-349 1431.17,-349 1431.17,-349 1427.33,-349 1423.5,-345.17 1423.5,-341.33 1423.5,-341.33 1423.5,-333.67 1423.5,-333.67 1423.5,-329.83 1427.33,-326 1431.17,-326 1431.17,-326 1532.83,-326 1532.83,-326 1536.67,-326 1540.5,-329.83 1540.5,-333.67 1540.5,-333.67 1540.5,-341.33 1540.5,-341.33 1540.5,-345.17 1536.67,-349 1532.83,-349"/>
<text text-anchor="middle" x="1482" y="-333.8" font-family="Arial" font-size="14.00" fill="#c6c5fe">../hooks/index.js</text>
</g>
<!-- ../components/product&#45;detail/RecentlyViewed.js&#45;&gt;../hooks/index.js -->
<g id="edge23" class="edge">
<title>../components/product&#45;detail/RecentlyViewed.js&#45;&gt;../hooks/index.js</title>
<path fill="none" stroke="#757575" d="M1284.18,-337.5C1329.3,-337.5 1376.3,-337.5 1413.05,-337.5"/>
<polygon fill="#757575" stroke="#757575" points="1413.14,-341 1423.14,-337.5 1413.14,-334 1413.14,-341"/>
</g>
<!-- ../hooks/useIsClient.js -->
<g id="node67" class="node">
<title>../hooks/useIsClient.js</title>
<path fill="none" stroke="#cfffac" d="M1871.83,-349C1871.83,-349 1734.17,-349 1734.17,-349 1730.33,-349 1726.5,-345.17 1726.5,-341.33 1726.5,-341.33 1726.5,-333.67 1726.5,-333.67 1726.5,-329.83 1730.33,-326 1734.17,-326 1734.17,-326 1871.83,-326 1871.83,-326 1875.67,-326 1879.5,-329.83 1879.5,-333.67 1879.5,-333.67 1879.5,-341.33 1879.5,-341.33 1879.5,-345.17 1875.67,-349 1871.83,-349"/>
<text text-anchor="middle" x="1803" y="-333.8" font-family="Arial" font-size="14.00" fill="#cfffac">../hooks/useIsClient.js</text>
</g>
<!-- ../hooks/index.js&#45;&gt;../hooks/useIsClient.js -->
<g id="edge95" class="edge">
<title>../hooks/index.js&#45;&gt;../hooks/useIsClient.js</title>
<path fill="none" stroke="#757575" d="M1540.77,-337.5C1589.7,-337.5 1660.56,-337.5 1716.13,-337.5"/>
<polygon fill="#757575" stroke="#757575" points="1716.32,-341 1726.32,-337.5 1716.32,-334 1716.32,-341"/>
</g>
<!-- ../components/product&#45;list/DescriptionContainer.js -->
<g id="node23" class="node">
<title>../components/product&#45;list/DescriptionContainer.js</title>
<path fill="none" stroke="#c6c5fe" d="M1283.33,-997C1283.33,-997 973.67,-997 973.67,-997 969.83,-997 966,-993.17 966,-989.33 966,-989.33 966,-981.67 966,-981.67 966,-977.83 969.83,-974 973.67,-974 973.67,-974 1283.33,-974 1283.33,-974 1287.17,-974 1291,-977.83 1291,-981.67 1291,-981.67 1291,-989.33 1291,-989.33 1291,-993.17 1287.17,-997 1283.33,-997"/>
<text text-anchor="middle" x="1128.5" y="-981.8" font-family="Arial" font-size="14.00" fill="#c6c5fe">../components/product&#45;list/DescriptionContainer.js</text>
</g>
<!-- ../images/Grid.js -->
<g id="node24" class="node">
<title>../images/Grid.js</title>
<path fill="none" stroke="#cfffac" d="M1533.33,-1018C1533.33,-1018 1430.67,-1018 1430.67,-1018 1426.83,-1018 1423,-1014.17 1423,-1010.33 1423,-1010.33 1423,-1002.67 1423,-1002.67 1423,-998.83 1426.83,-995 1430.67,-995 1430.67,-995 1533.33,-995 1533.33,-995 1537.17,-995 1541,-998.83 1541,-1002.67 1541,-1002.67 1541,-1010.33 1541,-1010.33 1541,-1014.17 1537.17,-1018 1533.33,-1018"/>
<text text-anchor="middle" x="1482" y="-1002.8" font-family="Arial" font-size="14.00" fill="#cfffac">../images/Grid.js</text>
</g>
<!-- ../components/product&#45;list/DescriptionContainer.js&#45;&gt;../images/Grid.js -->
<g id="edge24" class="edge">
<title>../components/product&#45;list/DescriptionContainer.js&#45;&gt;../images/Grid.js</title>
<path fill="none" stroke="#757575" d="M1291.1,-995.15C1333.94,-997.71 1377.91,-1000.34 1412.73,-1002.42"/>
<polygon fill="#757575" stroke="#757575" points="1412.58,-1005.92 1422.77,-1003.02 1412.99,-998.93 1412.58,-1005.92"/>
</g>
<!-- ../images/List.js -->
<g id="node25" class="node">
<title>../images/List.js</title>
<path fill="none" stroke="#cfffac" d="M1530.83,-977C1530.83,-977 1433.17,-977 1433.17,-977 1429.33,-977 1425.5,-973.17 1425.5,-969.33 1425.5,-969.33 1425.5,-961.67 1425.5,-961.67 1425.5,-957.83 1429.33,-954 1433.17,-954 1433.17,-954 1530.83,-954 1530.83,-954 1534.67,-954 1538.5,-957.83 1538.5,-961.67 1538.5,-961.67 1538.5,-969.33 1538.5,-969.33 1538.5,-973.17 1534.67,-977 1530.83,-977"/>
<text text-anchor="middle" x="1482" y="-961.8" font-family="Arial" font-size="14.00" fill="#cfffac">../images/List.js</text>
</g>
<!-- ../components/product&#45;list/DescriptionContainer.js&#45;&gt;../images/List.js -->
<g id="edge25" class="edge">
<title>../components/product&#45;list/DescriptionContainer.js&#45;&gt;../images/List.js</title>
<path fill="none" stroke="#757575" d="M1291.1,-976.3C1334.93,-973.81 1379.93,-971.25 1415.12,-969.25"/>
<polygon fill="#757575" stroke="#757575" points="1415.46,-972.74 1425.24,-968.67 1415.06,-965.75 1415.46,-972.74"/>
</g>
<!-- ../images/repeating&#45;smallest.svg -->
<g id="node26" class="node">
<title>../images/repeating&#45;smallest.svg</title>
<path fill="none" stroke="#cfffac" d="M1582.83,-1059C1582.83,-1059 1381.17,-1059 1381.17,-1059 1377.33,-1059 1373.5,-1055.17 1373.5,-1051.33 1373.5,-1051.33 1373.5,-1043.67 1373.5,-1043.67 1373.5,-1039.83 1377.33,-1036 1381.17,-1036 1381.17,-1036 1582.83,-1036 1582.83,-1036 1586.67,-1036 1590.5,-1039.83 1590.5,-1043.67 1590.5,-1043.67 1590.5,-1051.33 1590.5,-1051.33 1590.5,-1055.17 1586.67,-1059 1582.83,-1059"/>
<text text-anchor="middle" x="1482" y="-1043.8" font-family="Arial" font-size="14.00" fill="#cfffac">../images/repeating&#45;smallest.svg</text>
</g>
<!-- ../components/product&#45;list/DescriptionContainer.js&#45;&gt;../images/repeating&#45;smallest.svg -->
<g id="edge26" class="edge">
<title>../components/product&#45;list/DescriptionContainer.js&#45;&gt;../images/repeating&#45;smallest.svg</title>
<path fill="none" stroke="#757575" d="M1178.39,-997.04C1218.23,-1006.17 1276.03,-1018.79 1327,-1027.5 1341.82,-1030.03 1357.5,-1032.41 1372.95,-1034.59"/>
<polygon fill="#757575" stroke="#757575" points="1372.68,-1038.08 1383.06,-1035.98 1373.64,-1031.15 1372.68,-1038.08"/>
</g>
<!-- ../components/product&#45;list/DynamicToolbar.js&#45;&gt;../components/product&#45;list/DescriptionContainer.js -->
<g id="edge27" class="edge">
<title>../components/product&#45;list/DynamicToolbar.js&#45;&gt;../components/product&#45;list/DescriptionContainer.js</title>
<path fill="none" stroke="#757575" d="M816.94,-877.01C879.44,-898.84 1015.18,-946.26 1084.66,-970.53"/>
<polygon fill="#757575" stroke="#757575" points="1083.82,-973.95 1094.41,-973.94 1086.13,-967.34 1083.82,-973.95"/>
</g>
<!-- ../components/product&#45;list/FunctionContainer.js -->
<g id="node28" class="node">
<title>../components/product&#45;list/FunctionContainer.js</title>
<path fill="none" stroke="#c6c5fe" d="M1274.83,-877C1274.83,-877 982.17,-877 982.17,-877 978.33,-877 974.5,-873.17 974.5,-869.33 974.5,-869.33 974.5,-861.67 974.5,-861.67 974.5,-857.83 978.33,-854 982.17,-854 982.17,-854 1274.83,-854 1274.83,-854 1278.67,-854 1282.5,-857.83 1282.5,-861.67 1282.5,-861.67 1282.5,-869.33 1282.5,-869.33 1282.5,-873.17 1278.67,-877 1274.83,-877"/>
<text text-anchor="middle" x="1128.5" y="-861.8" font-family="Arial" font-size="14.00" fill="#c6c5fe">../components/product&#45;list/FunctionContainer.js</text>
</g>
<!-- ../components/product&#45;list/DynamicToolbar.js&#45;&gt;../components/product&#45;list/FunctionContainer.js -->
<g id="edge28" class="edge">
<title>../components/product&#45;list/DynamicToolbar.js&#45;&gt;../components/product&#45;list/FunctionContainer.js</title>
<path fill="none" stroke="#757575" d="M930.17,-865.5C941.36,-865.5 952.69,-865.5 963.97,-865.5"/>
<polygon fill="#757575" stroke="#757575" points="964.32,-869 974.32,-865.5 964.32,-862 964.32,-869"/>
</g>
<!-- ../components/product&#45;list/Filter.js -->
<g id="node29" class="node">
<title>../components/product&#45;list/Filter.js</title>
<path fill="none" stroke="#c6c5fe" d="M1586.83,-897C1586.83,-897 1377.17,-897 1377.17,-897 1373.33,-897 1369.5,-893.17 1369.5,-889.33 1369.5,-889.33 1369.5,-881.67 1369.5,-881.67 1369.5,-877.83 1373.33,-874 1377.17,-874 1377.17,-874 1586.83,-874 1586.83,-874 1590.67,-874 1594.5,-877.83 1594.5,-881.67 1594.5,-881.67 1594.5,-889.33 1594.5,-889.33 1594.5,-893.17 1590.67,-897 1586.83,-897"/>
<text text-anchor="middle" x="1482" y="-881.8" font-family="Arial" font-size="14.00" fill="#c6c5fe">../components/product&#45;list/Filter.js</text>
</g>
<!-- ../components/product&#45;list/FunctionContainer.js&#45;&gt;../components/product&#45;list/Filter.js -->
<g id="edge31" class="edge">
<title>../components/product&#45;list/FunctionContainer.js&#45;&gt;../components/product&#45;list/Filter.js</title>
<path fill="none" stroke="#757575" d="M1282.65,-874.21C1308.26,-875.67 1334.52,-877.17 1359.21,-878.57"/>
<polygon fill="#757575" stroke="#757575" points="1359.13,-882.07 1369.32,-879.15 1359.53,-875.08 1359.13,-882.07"/>
</g>
<!-- ../images/filter.svg -->
<g id="node31" class="node">
<title>../images/filter.svg</title>
<path fill="none" stroke="#cfffac" d="M1859.83,-935C1859.83,-935 1746.17,-935 1746.17,-935 1742.33,-935 1738.5,-931.17 1738.5,-927.33 1738.5,-927.33 1738.5,-919.67 1738.5,-919.67 1738.5,-915.83 1742.33,-912 1746.17,-912 1746.17,-912 1859.83,-912 1859.83,-912 1863.67,-912 1867.5,-915.83 1867.5,-919.67 1867.5,-919.67 1867.5,-927.33 1867.5,-927.33 1867.5,-931.17 1863.67,-935 1859.83,-935"/>
<text text-anchor="middle" x="1803" y="-919.8" font-family="Arial" font-size="14.00" fill="#cfffac">../images/filter.svg</text>
</g>
<!-- ../components/product&#45;list/FunctionContainer.js&#45;&gt;../images/filter.svg -->
<g id="edge33" class="edge">
<title>../components/product&#45;list/FunctionContainer.js&#45;&gt;../images/filter.svg</title>
<path fill="none" stroke="#757575" d="M1174.25,-877.05C1214.04,-886.77 1273.98,-900.09 1327,-906.5 1468.15,-923.55 1634.45,-925.35 1728.13,-924.71"/>
<polygon fill="#757575" stroke="#757575" points="1728.38,-928.2 1738.35,-924.62 1728.32,-921.2 1728.38,-928.2"/>
</g>
<!-- ../components/product&#45;list/Sort.js -->
<g id="node32" class="node">
<title>../components/product&#45;list/Sort.js</title>
<path fill="none" stroke="#c6c5fe" d="M1584.33,-856C1584.33,-856 1379.67,-856 1379.67,-856 1375.83,-856 1372,-852.17 1372,-848.33 1372,-848.33 1372,-840.67 1372,-840.67 1372,-836.83 1375.83,-833 1379.67,-833 1379.67,-833 1584.33,-833 1584.33,-833 1588.17,-833 1592,-836.83 1592,-840.67 1592,-840.67 1592,-848.33 1592,-848.33 1592,-852.17 1588.17,-856 1584.33,-856"/>
<text text-anchor="middle" x="1482" y="-840.8" font-family="Arial" font-size="14.00" fill="#c6c5fe">../components/product&#45;list/Sort.js</text>
</g>
<!-- ../components/product&#45;list/FunctionContainer.js&#45;&gt;../components/product&#45;list/Sort.js -->
<g id="edge32" class="edge">
<title>../components/product&#45;list/FunctionContainer.js&#45;&gt;../components/product&#45;list/Sort.js</title>
<path fill="none" stroke="#757575" d="M1282.65,-856.35C1309.19,-854.76 1336.43,-853.14 1361.89,-851.62"/>
<polygon fill="#757575" stroke="#757575" points="1362.16,-855.11 1371.93,-851.02 1361.74,-848.12 1362.16,-855.11"/>
</g>
<!-- ../images/sort.svg -->
<g id="node33" class="node">
<title>../images/sort.svg</title>
<path fill="none" stroke="#cfffac" d="M1858.33,-839C1858.33,-839 1747.67,-839 1747.67,-839 1743.83,-839 1740,-835.17 1740,-831.33 1740,-831.33 1740,-823.67 1740,-823.67 1740,-819.83 1743.83,-816 1747.67,-816 1747.67,-816 1858.33,-816 1858.33,-816 1862.17,-816 1866,-819.83 1866,-823.67 1866,-823.67 1866,-831.33 1866,-831.33 1866,-835.17 1862.17,-839 1858.33,-839"/>
<text text-anchor="middle" x="1803" y="-823.8" font-family="Arial" font-size="14.00" fill="#cfffac">../images/sort.svg</text>
</g>
<!-- ../components/product&#45;list/FunctionContainer.js&#45;&gt;../images/sort.svg -->
<g id="edge34" class="edge">
<title>../components/product&#45;list/FunctionContainer.js&#45;&gt;../images/sort.svg</title>
<path fill="none" stroke="#757575" d="M1172.25,-853.98C1211.99,-843.91 1273,-830.05 1327,-824.5 1464.06,-810.42 1499.23,-823.25 1637,-824.5 1667.24,-824.77 1700.59,-825.33 1729.34,-825.89"/>
<polygon fill="#757575" stroke="#757575" points="1729.65,-829.4 1739.71,-826.1 1729.79,-822.4 1729.65,-829.4"/>
</g>
<!-- ../images/close&#45;outline.svg -->
<g id="node30" class="node">
<title>../images/close&#45;outline.svg</title>
<path fill="none" stroke="#cfffac" d="M1885.83,-889C1885.83,-889 1720.17,-889 1720.17,-889 1716.33,-889 1712.5,-885.17 1712.5,-881.33 1712.5,-881.33 1712.5,-873.67 1712.5,-873.67 1712.5,-869.83 1716.33,-866 1720.17,-866 1720.17,-866 1885.83,-866 1885.83,-866 1889.67,-866 1893.5,-869.83 1893.5,-873.67 1893.5,-873.67 1893.5,-881.33 1893.5,-881.33 1893.5,-885.17 1889.67,-889 1885.83,-889"/>
<text text-anchor="middle" x="1803" y="-873.8" font-family="Arial" font-size="14.00" fill="#cfffac">../images/close&#45;outline.svg</text>
</g>
<!-- ../components/product&#45;list/Filter.js&#45;&gt;../images/close&#45;outline.svg -->
<g id="edge29" class="edge">
<title>../components/product&#45;list/Filter.js&#45;&gt;../images/close&#45;outline.svg</title>
<path fill="none" stroke="#757575" d="M1594.57,-882.7C1629.5,-881.83 1667.8,-880.87 1701.89,-880.01"/>
<polygon fill="#757575" stroke="#757575" points="1702.41,-883.5 1712.32,-879.75 1702.24,-876.5 1702.41,-883.5"/>
</g>
<!-- ../components/product&#45;list/Filter.js&#45;&gt;../images/filter.svg -->
<g id="edge30" class="edge">
<title>../components/product&#45;list/Filter.js&#45;&gt;../images/filter.svg</title>
<path fill="none" stroke="#757575" d="M1579.58,-897C1627.38,-902.7 1684.17,-909.46 1728.4,-914.73"/>
<polygon fill="#757575" stroke="#757575" points="1728.15,-918.23 1738.49,-915.94 1728.98,-911.28 1728.15,-918.23"/>
</g>
<!-- ../components/product&#45;list/Sort.js&#45;&gt;../images/close&#45;outline.svg -->
<g id="edge57" class="edge">
<title>../components/product&#45;list/Sort.js&#45;&gt;../images/close&#45;outline.svg</title>
<path fill="none" stroke="#757575" d="M1592.34,-855.81C1627.96,-859.5 1667.3,-863.57 1702.18,-867.17"/>
<polygon fill="#757575" stroke="#757575" points="1702.07,-870.68 1712.38,-868.23 1702.79,-863.72 1702.07,-870.68"/>
</g>
<!-- ../components/product&#45;list/Sort.js&#45;&gt;../images/sort.svg -->
<g id="edge58" class="edge">
<title>../components/product&#45;list/Sort.js&#45;&gt;../images/sort.svg</title>
<path fill="none" stroke="#757575" d="M1592.34,-838.67C1637.73,-836.25 1689.15,-833.51 1729.71,-831.35"/>
<polygon fill="#757575" stroke="#757575" points="1729.98,-834.84 1739.78,-830.82 1729.61,-827.85 1729.98,-834.84"/>
</g>
<!-- ../components/product&#45;list/ListOfProducts.js&#45;&gt;../apollo/queries.js -->
<g id="edge35" class="edge">
<title>../components/product&#45;list/ListOfProducts.js&#45;&gt;../apollo/queries.js</title>
<path fill="none" stroke="#757575" d="M905.21,-564.92C913.78,-562.34 922.13,-559.23 930,-555.5 949.62,-546.21 946.49,-532.02 966,-522.5 993.08,-509.29 1025.43,-502.39 1054.03,-498.84"/>
<polygon fill="#757575" stroke="#757575" points="1054.44,-502.32 1063.98,-497.72 1053.65,-495.36 1054.44,-502.32"/>
</g>
<!-- ../components/product&#45;list/ListOfProducts.js&#45;&gt;../components/product&#45;list/ProductFrameGrid.js -->
<g id="edge36" class="edge">
<title>../components/product&#45;list/ListOfProducts.js&#45;&gt;../components/product&#45;list/ProductFrameGrid.js</title>
<path fill="none" stroke="#757575" d="M884.01,-564.98C1030.5,-548.04 1286.67,-518.11 1291,-515.5 1315.07,-500.99 1303.28,-478.58 1327,-463.5 1333.6,-459.31 1340.66,-455.73 1348,-452.68"/>
<polygon fill="#757575" stroke="#757575" points="1349.33,-455.92 1357.44,-449.09 1346.85,-449.37 1349.33,-455.92"/>
</g>
<!-- ../components/product&#45;list/ProductFrameList.js -->
<g id="node35" class="node">
<title>../components/product&#45;list/ProductFrameList.js</title>
<path fill="none" stroke="#c6c5fe" d="M1273.33,-588C1273.33,-588 983.67,-588 983.67,-588 979.83,-588 976,-584.17 976,-580.33 976,-580.33 976,-572.67 976,-572.67 976,-568.83 979.83,-565 983.67,-565 983.67,-565 1273.33,-565 1273.33,-565 1277.17,-565 1281,-568.83 1281,-572.67 1281,-572.67 1281,-580.33 1281,-580.33 1281,-584.17 1277.17,-588 1273.33,-588"/>
<text text-anchor="middle" x="1128.5" y="-572.8" font-family="Arial" font-size="14.00" fill="#c6c5fe">../components/product&#45;list/ProductFrameList.js</text>
</g>
<!-- ../components/product&#45;list/ListOfProducts.js&#45;&gt;../components/product&#45;list/ProductFrameList.js -->
<g id="edge37" class="edge">
<title>../components/product&#45;list/ListOfProducts.js&#45;&gt;../components/product&#45;list/ProductFrameList.js</title>
<path fill="none" stroke="#757575" d="M926.19,-576.5C939.28,-576.5 952.61,-576.5 965.86,-576.5"/>
<polygon fill="#757575" stroke="#757575" points="965.96,-580 975.96,-576.5 965.96,-573 965.96,-580"/>
</g>
<!-- ../components/product&#45;list/ProductFrameList.js&#45;&gt;../components/home/Rating.js -->
<g id="edge40" class="edge">
<title>../components/product&#45;list/ProductFrameList.js&#45;&gt;../components/home/Rating.js</title>
<path fill="none" stroke="#757575" d="M1142.67,-588.26C1172.78,-614.38 1250.02,-677.08 1327,-704.5 1508.8,-769.26 2081.81,-793.84 2324.82,-801.52"/>
<polygon fill="#757575" stroke="#757575" points="2324.98,-805.03 2335.08,-801.84 2325.2,-798.03 2324.98,-805.03"/>
</g>
<!-- ../components/product&#45;list/ProductFrameList.js&#45;&gt;../components/product&#45;detail/ProductInfo.js -->
<g id="edge41" class="edge">
<title>../components/product&#45;list/ProductFrameList.js&#45;&gt;../components/product&#45;detail/ProductInfo.js</title>
<path fill="none" stroke="#757575" d="M1231.31,-588.01C1418.03,-609.13 1813.86,-653.88 2007.95,-675.83"/>
<polygon fill="#757575" stroke="#757575" points="2007.84,-679.34 2018.17,-676.99 2008.63,-672.38 2007.84,-679.34"/>
</g>
<!-- ../components/product&#45;list/ProductFrameList.js&#45;&gt;../components/product&#45;list/ProductFrameGrid.js -->
<g id="edge42" class="edge">
<title>../components/product&#45;list/ProductFrameList.js&#45;&gt;../components/product&#45;list/ProductFrameGrid.js</title>
<path fill="none" stroke="#757575" d="M1266.91,-564.92C1275.51,-561.06 1283.65,-556.31 1291,-550.5 1323.82,-524.55 1294.27,-489.58 1327,-463.5 1331.69,-459.77 1336.71,-456.48 1341.98,-453.6"/>
<polygon fill="#757575" stroke="#757575" points="1343.65,-456.68 1351.07,-449.12 1340.55,-450.4 1343.65,-456.68"/>
</g>
<!-- ../components/product&#45;list/ProductFrameList.js&#45;&gt;../components/product&#45;list/QtyButton.js -->
<g id="edge43" class="edge">
<title>../components/product&#45;list/ProductFrameList.js&#45;&gt;../components/product&#45;list/QtyButton.js</title>
<path fill="none" stroke="#757575" d="M1164.79,-588.08C1204,-600.54 1269.39,-620.09 1327,-631.5 1740.8,-713.44 1851.18,-712.12 2273,-708.5 2402.35,-707.39 2434.82,-710.13 2564,-703.5 2573.6,-703.01 2583.51,-702.4 2593.49,-701.72"/>
<polygon fill="#757575" stroke="#757575" points="2593.74,-705.21 2603.47,-701.01 2593.25,-698.23 2593.74,-705.21"/>
</g>
<!-- ../components/product&#45;list/ProductFrameList.js&#45;&gt;../components/product&#45;list/Sizes.js -->
<g id="edge44" class="edge">
<title>../components/product&#45;list/ProductFrameList.js&#45;&gt;../components/product&#45;list/Sizes.js</title>
<path fill="none" stroke="#757575" d="M1281.28,-580.11C1582.58,-586.72 2230.95,-597.98 2273,-573.5 2300.87,-557.28 2282.32,-528.62 2309,-510.5 2310.26,-509.64 2311.55,-508.82 2312.85,-508.03"/>
<polygon fill="#757575" stroke="#757575" points="2314.6,-511.06 2321.76,-503.25 2311.3,-504.89 2314.6,-511.06"/>
</g>
<!-- ../components/product&#45;list/ProductFrameList.js&#45;&gt;../components/product&#45;list/Swatches.js -->
<g id="edge45" class="edge">
<title>../components/product&#45;list/ProductFrameList.js&#45;&gt;../components/product&#45;list/Swatches.js</title>
<path fill="none" stroke="#757575" d="M1248.5,-564.92C1263.24,-561.1 1277.76,-556.08 1291,-549.5 1310.71,-539.71 1306.96,-524.6 1327,-515.5 1573.37,-403.66 1676.34,-543.12 1933,-457.5 1950.79,-451.57 1950.95,-440.58 1969,-435.5 2099.06,-398.91 2138.05,-428.87 2273,-435.5 2289.57,-436.31 2307.05,-437.59 2324.17,-439.08"/>
<polygon fill="#757575" stroke="#757575" points="2323.92,-442.57 2334.19,-439.98 2324.55,-435.6 2323.92,-442.57"/>
</g>
<!-- ../images/product&#45;frame&#45;list.svg -->
<g id="node38" class="node">
<title>../images/product&#45;frame&#45;list.svg</title>
<path fill="none" stroke="#cfffac" d="M1580.33,-548C1580.33,-548 1383.67,-548 1383.67,-548 1379.83,-548 1376,-544.17 1376,-540.33 1376,-540.33 1376,-532.67 1376,-532.67 1376,-528.83 1379.83,-525 1383.67,-525 1383.67,-525 1580.33,-525 1580.33,-525 1584.17,-525 1588,-528.83 1588,-532.67 1588,-532.67 1588,-540.33 1588,-540.33 1588,-544.17 1584.17,-548 1580.33,-548"/>
<text text-anchor="middle" x="1482" y="-532.8" font-family="Arial" font-size="14.00" fill="#cfffac">../images/product&#45;frame&#45;list.svg</text>
</g>
<!-- ../components/product&#45;list/ProductFrameList.js&#45;&gt;../images/product&#45;frame&#45;list.svg -->
<g id="edge46" class="edge">
<title>../components/product&#45;list/ProductFrameList.js&#45;&gt;../images/product&#45;frame&#45;list.svg</title>
<path fill="none" stroke="#757575" d="M1230.7,-564.98C1274.25,-560.03 1325.31,-554.22 1369.91,-549.14"/>
<polygon fill="#757575" stroke="#757575" points="1370.37,-552.61 1379.91,-548 1369.58,-545.66 1370.37,-552.61"/>
</g>
<!-- ../components/product&#45;list/QuickView.js&#45;&gt;../components/home/Rating.js -->
<g id="edge50" class="edge">
<title>../components/product&#45;list/QuickView.js&#45;&gt;../components/home/Rating.js</title>
<path fill="none" stroke="#757575" d="M1811.25,-546.12C1831.69,-577.85 1893.32,-666.42 1969,-708.5 2031.23,-743.11 2220.88,-774.6 2338.33,-791.51"/>
<polygon fill="#757575" stroke="#757575" points="2338.01,-795 2348.41,-792.95 2339,-788.07 2338.01,-795"/>
</g>
<!-- ../components/product&#45;list/QuickView.js&#45;&gt;../components/product&#45;detail/ProductInfo.js -->
<g id="edge51" class="edge">
<title>../components/product&#45;list/QuickView.js&#45;&gt;../components/product&#45;detail/ProductInfo.js</title>
<path fill="none" stroke="#757575" d="M1828.7,-546.09C1855,-558.67 1897.63,-579.75 1933,-600.5 1949.59,-610.23 1952.07,-615.37 1969,-624.5 2004.73,-643.76 2047.5,-661.42 2078.38,-673.29"/>
<polygon fill="#757575" stroke="#757575" points="2077.37,-676.65 2087.97,-676.93 2079.86,-670.1 2077.37,-676.65"/>
</g>
<!-- ../components/product&#45;list/QuickView.js&#45;&gt;../components/product&#45;list/QtyButton.js -->
<g id="edge52" class="edge">
<title>../components/product&#45;list/QuickView.js&#45;&gt;../components/product&#45;list/QtyButton.js</title>
<path fill="none" stroke="#757575" d="M1918.93,-546.04C1923.73,-547.37 1928.44,-548.85 1933,-550.5 1950.86,-556.94 1951.23,-566.81 1969,-573.5 2176.38,-651.59 2434.52,-677.18 2589.88,-685.52"/>
<polygon fill="#757575" stroke="#757575" points="2589.8,-689.02 2599.97,-686.04 2590.16,-682.03 2589.8,-689.02"/>
</g>
<!-- ../components/product&#45;list/QuickView.js&#45;&gt;../components/product&#45;list/Sizes.js -->
<g id="edge53" class="edge">
<title>../components/product&#45;list/QuickView.js&#45;&gt;../components/product&#45;list/Sizes.js</title>
<path fill="none" stroke="#757575" d="M1889.81,-546.02C2005.75,-560.18 2205.71,-579.26 2273,-552.5 2293.45,-544.37 2289.48,-528.66 2309,-518.5 2317.88,-513.88 2327.5,-510.08 2337.34,-506.96"/>
<polygon fill="#757575" stroke="#757575" points="2338.63,-510.23 2347.24,-504.06 2336.66,-503.51 2338.63,-510.23"/>
</g>
<!-- ../components/product&#45;list/QuickView.js&#45;&gt;../components/product&#45;list/Swatches.js -->
<g id="edge54" class="edge">
<title>../components/product&#45;list/QuickView.js&#45;&gt;../components/product&#45;list/Swatches.js</title>
<path fill="none" stroke="#757575" d="M1845.79,-522.96C1871.45,-515.29 1904.72,-504.3 1933,-491.5 1949.88,-483.86 1951.22,-475.7 1969,-470.5 2076.53,-439.07 2203.93,-436.04 2298.4,-439.9"/>
<polygon fill="#757575" stroke="#757575" points="2298.45,-443.41 2308.59,-440.35 2298.76,-436.42 2298.45,-443.41"/>
</g>
<!-- ../images/explore.svg -->
<g id="node40" class="node">
<title>../images/explore.svg</title>
<path fill="none" stroke="#cfffac" d="M2187.83,-544C2187.83,-544 2054.17,-544 2054.17,-544 2050.33,-544 2046.5,-540.17 2046.5,-536.33 2046.5,-536.33 2046.5,-528.67 2046.5,-528.67 2046.5,-524.83 2050.33,-521 2054.17,-521 2054.17,-521 2187.83,-521 2187.83,-521 2191.67,-521 2195.5,-524.83 2195.5,-528.67 2195.5,-528.67 2195.5,-536.33 2195.5,-536.33 2195.5,-540.17 2191.67,-544 2187.83,-544"/>
<text text-anchor="middle" x="2121" y="-528.8" font-family="Arial" font-size="14.00" fill="#cfffac">../images/explore.svg</text>
</g>
<!-- ../components/product&#45;list/QuickView.js&#45;&gt;../images/explore.svg -->
<g id="edge55" class="edge">
<title>../components/product&#45;list/QuickView.js&#45;&gt;../images/explore.svg</title>
<path fill="none" stroke="#757575" d="M1933.44,-533.68C1968.2,-533.46 2004.87,-533.23 2036.41,-533.03"/>
<polygon fill="#757575" stroke="#757575" points="2036.48,-536.53 2046.46,-532.97 2036.44,-529.53 2036.48,-536.53"/>
</g>
<!-- ../images/selected&#45;frame.svg -->
<g id="node41" class="node">
<title>../images/selected&#45;frame.svg</title>
<path fill="none" stroke="#cfffac" d="M2210.83,-503C2210.83,-503 2031.17,-503 2031.17,-503 2027.33,-503 2023.5,-499.17 2023.5,-495.33 2023.5,-495.33 2023.5,-487.67 2023.5,-487.67 2023.5,-483.83 2027.33,-480 2031.17,-480 2031.17,-480 2210.83,-480 2210.83,-480 2214.67,-480 2218.5,-483.83 2218.5,-487.67 2218.5,-487.67 2218.5,-495.33 2218.5,-495.33 2218.5,-499.17 2214.67,-503 2210.83,-503"/>
<text text-anchor="middle" x="2121" y="-487.8" font-family="Arial" font-size="14.00" fill="#cfffac">../images/selected&#45;frame.svg</text>
</g>
<!-- ../components/product&#45;list/QuickView.js&#45;&gt;../images/selected&#45;frame.svg -->
<g id="edge56" class="edge">
<title>../components/product&#45;list/QuickView.js&#45;&gt;../images/selected&#45;frame.svg</title>
<path fill="none" stroke="#757575" d="M1885.81,-522.98C1912.35,-519.28 1941.92,-515.18 1969,-511.5 1986.09,-509.18 2004.26,-506.74 2021.87,-504.4"/>
<polygon fill="#757575" stroke="#757575" points="2022.7,-507.82 2032.16,-503.03 2021.78,-500.88 2022.7,-507.82"/>
</g>
<!-- ../components/ui/footer.js -->
<g id="node44" class="node">
<title>../components/ui/footer.js</title>
<path fill="none" stroke="#c6c5fe" d="M1206.83,-85C1206.83,-85 1050.17,-85 1050.17,-85 1046.33,-85 1042.5,-81.17 1042.5,-77.33 1042.5,-77.33 1042.5,-69.67 1042.5,-69.67 1042.5,-65.83 1046.33,-62 1050.17,-62 1050.17,-62 1206.83,-62 1206.83,-62 1210.67,-62 1214.5,-65.83 1214.5,-69.67 1214.5,-69.67 1214.5,-77.33 1214.5,-77.33 1214.5,-81.17 1210.67,-85 1206.83,-85"/>
<text text-anchor="middle" x="1128.5" y="-69.8" font-family="Arial" font-size="14.00" fill="#c6c5fe">../components/ui/footer.js</text>
</g>
<!-- ../images/facebook.svg -->
<g id="node45" class="node">
<title>../images/facebook.svg</title>
<path fill="none" stroke="#cfffac" d="M1554.33,-105C1554.33,-105 1409.67,-105 1409.67,-105 1405.83,-105 1402,-101.17 1402,-97.33 1402,-97.33 1402,-89.67 1402,-89.67 1402,-85.83 1405.83,-82 1409.67,-82 1409.67,-82 1554.33,-82 1554.33,-82 1558.17,-82 1562,-85.83 1562,-89.67 1562,-89.67 1562,-97.33 1562,-97.33 1562,-101.17 1558.17,-105 1554.33,-105"/>
<text text-anchor="middle" x="1482" y="-89.8" font-family="Arial" font-size="14.00" fill="#cfffac">../images/facebook.svg</text>
</g>
<!-- ../components/ui/footer.js&#45;&gt;../images/facebook.svg -->
<g id="edge62" class="edge">
<title>../components/ui/footer.js&#45;&gt;../images/facebook.svg</title>
<path fill="none" stroke="#757575" d="M1214.59,-78.34C1268.13,-81.39 1337.13,-85.31 1391.49,-88.41"/>
<polygon fill="#757575" stroke="#757575" points="1391.63,-91.92 1401.81,-88.99 1392.03,-84.93 1391.63,-91.92"/>
</g>
<!-- ../images/instagram.svg -->
<g id="node46" class="node">
<title>../images/instagram.svg</title>
<path fill="none" stroke="#cfffac" d="M1556.33,-64C1556.33,-64 1407.67,-64 1407.67,-64 1403.83,-64 1400,-60.17 1400,-56.33 1400,-56.33 1400,-48.67 1400,-48.67 1400,-44.83 1403.83,-41 1407.67,-41 1407.67,-41 1556.33,-41 1556.33,-41 1560.17,-41 1564,-44.83 1564,-48.67 1564,-48.67 1564,-56.33 1564,-56.33 1564,-60.17 1560.17,-64 1556.33,-64"/>
<text text-anchor="middle" x="1482" y="-48.8" font-family="Arial" font-size="14.00" fill="#cfffac">../images/instagram.svg</text>
</g>
<!-- ../components/ui/footer.js&#45;&gt;../images/instagram.svg -->
<g id="edge63" class="edge">
<title>../components/ui/footer.js&#45;&gt;../images/instagram.svg</title>
<path fill="none" stroke="#757575" d="M1214.59,-68.42C1267.46,-65.26 1335.41,-61.2 1389.45,-57.97"/>
<polygon fill="#757575" stroke="#757575" points="1389.94,-61.45 1399.72,-57.36 1389.53,-54.46 1389.94,-61.45"/>
</g>
<!-- ../images/twitter.svg -->
<g id="node47" class="node">
<title>../images/twitter.svg</title>
<path fill="none" stroke="#cfffac" d="M1543.83,-23C1543.83,-23 1420.17,-23 1420.17,-23 1416.33,-23 1412.5,-19.17 1412.5,-15.33 1412.5,-15.33 1412.5,-7.67 1412.5,-7.67 1412.5,-3.83 1416.33,0 1420.17,0 1420.17,0 1543.83,0 1543.83,0 1547.67,0 1551.5,-3.83 1551.5,-7.67 1551.5,-7.67 1551.5,-15.33 1551.5,-15.33 1551.5,-19.17 1547.67,-23 1543.83,-23"/>
<text text-anchor="middle" x="1482" y="-7.8" font-family="Arial" font-size="14.00" fill="#cfffac">../images/twitter.svg</text>
</g>
<!-- ../components/ui/footer.js&#45;&gt;../images/twitter.svg -->
<g id="edge64" class="edge">
<title>../components/ui/footer.js&#45;&gt;../images/twitter.svg</title>
<path fill="none" stroke="#757575" d="M1178.39,-61.96C1218.23,-52.83 1276.03,-40.21 1327,-31.5 1351.3,-27.35 1377.89,-23.61 1402.03,-20.52"/>
<polygon fill="#757575" stroke="#757575" points="1402.73,-23.96 1412.21,-19.23 1401.85,-17.01 1402.73,-23.96"/>
</g>
<!-- ../components/ui/header.js -->
<g id="node48" class="node">
<title>../components/ui/header.js</title>
<path fill="none" stroke="#c6c5fe" d="M1210.83,-268C1210.83,-268 1046.17,-268 1046.17,-268 1042.33,-268 1038.5,-264.17 1038.5,-260.33 1038.5,-260.33 1038.5,-252.67 1038.5,-252.67 1038.5,-248.83 1042.33,-245 1046.17,-245 1046.17,-245 1210.83,-245 1210.83,-245 1214.67,-245 1218.5,-248.83 1218.5,-252.67 1218.5,-252.67 1218.5,-260.33 1218.5,-260.33 1218.5,-264.17 1214.67,-268 1210.83,-268"/>
<text text-anchor="middle" x="1128.5" y="-252.8" font-family="Arial" font-size="14.00" fill="#c6c5fe">../components/ui/header.js</text>
</g>
<!-- ../components/ui/header.js&#45;&gt;../contexts/index.js -->
<g id="edge65" class="edge">
<title>../components/ui/header.js&#45;&gt;../contexts/index.js</title>
<path fill="none" stroke="#757575" d="M1218.7,-256.5C1347.49,-256.5 1593.01,-256.5 1802,-256.5 1802,-256.5 1802,-256.5 2437.5,-256.5 2629.7,-256.5 2710.66,-236.9 2857,-361.5 2928.03,-421.98 2952.77,-538.64 2960.2,-586.85"/>
<polygon fill="#757575" stroke="#757575" points="2956.74,-587.41 2961.63,-596.81 2963.67,-586.41 2956.74,-587.41"/>
</g>
<!-- ../components/ui/header.js&#45;&gt;../hooks/index.js -->
<g id="edge66" class="edge">
<title>../components/ui/header.js&#45;&gt;../hooks/index.js</title>
<path fill="none" stroke="#757575" d="M1161.93,-268.1C1200.71,-281.56 1267.84,-303.57 1327,-316.5 1354.93,-322.61 1386.13,-327.26 1413.1,-330.61"/>
<polygon fill="#757575" stroke="#757575" points="1412.86,-334.11 1423.21,-331.83 1413.7,-327.16 1412.86,-334.11"/>
</g>
<!-- ../images/account&#45;header.svg -->
<g id="node49" class="node">
<title>../images/account&#45;header.svg</title>
<path fill="none" stroke="#cfffac" d="M1573.83,-228C1573.83,-228 1390.17,-228 1390.17,-228 1386.33,-228 1382.5,-224.17 1382.5,-220.33 1382.5,-220.33 1382.5,-212.67 1382.5,-212.67 1382.5,-208.83 1386.33,-205 1390.17,-205 1390.17,-205 1573.83,-205 1573.83,-205 1577.67,-205 1581.5,-208.83 1581.5,-212.67 1581.5,-212.67 1581.5,-220.33 1581.5,-220.33 1581.5,-224.17 1577.67,-228 1573.83,-228"/>
<text text-anchor="middle" x="1482" y="-212.8" font-family="Arial" font-size="14.00" fill="#cfffac">../images/account&#45;header.svg</text>
</g>
<!-- ../components/ui/header.js&#45;&gt;../images/account&#45;header.svg -->
<g id="edge67" class="edge">
<title>../components/ui/header.js&#45;&gt;../images/account&#45;header.svg</title>
<path fill="none" stroke="#757575" d="M1218.65,-246.35C1265.37,-241.04 1322.96,-234.48 1372.28,-228.87"/>
<polygon fill="#757575" stroke="#757575" points="1372.8,-232.34 1382.34,-227.73 1372.01,-225.38 1372.8,-232.34"/>
</g>
<!-- ../images/cart.svg -->
<g id="node50" class="node">
<title>../images/cart.svg</title>
<path fill="none" stroke="#cfffac" d="M1537.33,-187C1537.33,-187 1426.67,-187 1426.67,-187 1422.83,-187 1419,-183.17 1419,-179.33 1419,-179.33 1419,-171.67 1419,-171.67 1419,-167.83 1422.83,-164 1426.67,-164 1426.67,-164 1537.33,-164 1537.33,-164 1541.17,-164 1545,-167.83 1545,-171.67 1545,-171.67 1545,-179.33 1545,-179.33 1545,-183.17 1541.17,-187 1537.33,-187"/>
<text text-anchor="middle" x="1482" y="-171.8" font-family="Arial" font-size="14.00" fill="#cfffac">../images/cart.svg</text>
</g>
<!-- ../components/ui/header.js&#45;&gt;../images/cart.svg -->
<g id="edge68" class="edge">
<title>../components/ui/header.js&#45;&gt;../images/cart.svg</title>
<path fill="none" stroke="#757575" d="M1160.87,-244.99C1199.46,-231.25 1267.21,-208.52 1327,-195.5 1353.4,-189.75 1382.72,-185.44 1408.64,-182.32"/>
<polygon fill="#757575" stroke="#757575" points="1409.24,-185.78 1418.77,-181.14 1408.43,-178.82 1409.24,-185.78"/>
</g>
<!-- ../images/menu.svg -->
<g id="node51" class="node">
<title>../images/menu.svg</title>
<path fill="none" stroke="#cfffac" d="M1543.33,-146C1543.33,-146 1420.67,-146 1420.67,-146 1416.83,-146 1413,-142.17 1413,-138.33 1413,-138.33 1413,-130.67 1413,-130.67 1413,-126.83 1416.83,-123 1420.67,-123 1420.67,-123 1543.33,-123 1543.33,-123 1547.17,-123 1551,-126.83 1551,-130.67 1551,-130.67 1551,-138.33 1551,-138.33 1551,-142.17 1547.17,-146 1543.33,-146"/>
<text text-anchor="middle" x="1482" y="-130.8" font-family="Arial" font-size="14.00" fill="#cfffac">../images/menu.svg</text>
</g>
<!-- ../components/ui/header.js&#45;&gt;../images/menu.svg -->
<g id="edge69" class="edge">
<title>../components/ui/header.js&#45;&gt;../images/menu.svg</title>
<path fill="none" stroke="#757575" d="M1146.84,-244.88C1180.15,-223.17 1256.1,-176.66 1327,-154.5 1351.09,-146.97 1378.15,-142.27 1402.79,-139.35"/>
<polygon fill="#757575" stroke="#757575" points="1403.27,-142.81 1412.82,-138.23 1402.5,-135.86 1403.27,-142.81"/>
</g>
<!-- ../images/search.svg -->
<g id="node52" class="node">
<title>../images/search.svg</title>
<path fill="none" stroke="#cfffac" d="M1546.83,-308C1546.83,-308 1417.17,-308 1417.17,-308 1413.33,-308 1409.5,-304.17 1409.5,-300.33 1409.5,-300.33 1409.5,-292.67 1409.5,-292.67 1409.5,-288.83 1413.33,-285 1417.17,-285 1417.17,-285 1546.83,-285 1546.83,-285 1550.67,-285 1554.5,-288.83 1554.5,-292.67 1554.5,-292.67 1554.5,-300.33 1554.5,-300.33 1554.5,-304.17 1550.67,-308 1546.83,-308"/>
<text text-anchor="middle" x="1482" y="-292.8" font-family="Arial" font-size="14.00" fill="#cfffac">../images/search.svg</text>
</g>
<!-- ../components/ui/header.js&#45;&gt;../images/search.svg -->
<g id="edge70" class="edge">
<title>../components/ui/header.js&#45;&gt;../images/search.svg</title>
<path fill="none" stroke="#757575" d="M1218.65,-266.65C1274.16,-272.96 1345.03,-281.03 1399.12,-287.18"/>
<polygon fill="#757575" stroke="#757575" points="1399.03,-290.69 1409.36,-288.35 1399.82,-283.74 1399.03,-290.69"/>
</g>
<!-- ../components/ui/layout.js&#45;&gt;../components/ui/footer.js -->
<g id="edge71" class="edge">
<title>../components/ui/layout.js&#45;&gt;../components/ui/footer.js</title>
<path fill="none" stroke="#757575" d="M803.45,-265.95C861.06,-231.73 1031,-130.81 1098.95,-90.46"/>
<polygon fill="#757575" stroke="#757575" points="1101.02,-93.29 1107.84,-85.18 1097.45,-87.28 1101.02,-93.29"/>
</g>
<!-- ../components/ui/layout.js&#45;&gt;../components/ui/header.js -->
<g id="edge72" class="edge">
<title>../components/ui/layout.js&#45;&gt;../components/ui/header.js</title>
<path fill="none" stroke="#757575" d="M870.24,-272.23C918.2,-269.3 978.12,-265.63 1028.06,-262.58"/>
<polygon fill="#757575" stroke="#757575" points="1028.46,-266.06 1038.23,-261.96 1028.04,-259.07 1028.46,-266.06"/>
</g>
<!-- ../contexts/actions/action&#45;types.js -->
<g id="node57" class="node">
<title>../contexts/actions/action&#45;types.js</title>
<path fill="none" stroke="#cfffac" d="M4184.33,-679C4184.33,-679 3977.67,-679 3977.67,-679 3973.83,-679 3970,-675.17 3970,-671.33 3970,-671.33 3970,-663.67 3970,-663.67 3970,-659.83 3973.83,-656 3977.67,-656 3977.67,-656 4184.33,-656 4184.33,-656 4188.17,-656 4192,-659.83 4192,-663.67 4192,-663.67 4192,-671.33 4192,-671.33 4192,-675.17 4188.17,-679 4184.33,-679"/>
<text text-anchor="middle" x="4081" y="-663.8" font-family="Arial" font-size="14.00" fill="#cfffac">../contexts/actions/action&#45;types.js</text>
</g>
<!-- ../contexts/actions/cart&#45;actions.js&#45;&gt;../contexts/actions/action&#45;types.js -->
<g id="edge78" class="edge">
<title>../contexts/actions/cart&#45;actions.js&#45;&gt;../contexts/actions/action&#45;types.js</title>
<path fill="none" stroke="#757575" d="M3904.09,-758.97C3914.32,-756.64 3924.46,-753.85 3934,-750.5 3979.67,-734.46 4027.52,-704.31 4055.5,-685.1"/>
<polygon fill="#757575" stroke="#757575" points="4057.65,-687.87 4063.86,-679.28 4053.65,-682.12 4057.65,-687.87"/>
</g>
<!-- ../contexts/actions/feedback&#45;actions.js&#45;&gt;../contexts/actions/action&#45;types.js -->
<g id="edge79" class="edge">
<title>../contexts/actions/feedback&#45;actions.js&#45;&gt;../contexts/actions/action&#45;types.js</title>
<path fill="none" stroke="#757575" d="M3885.6,-717.97C3901.65,-715.18 3918.43,-711.98 3934,-708.5 3967.55,-700.99 4004.87,-690.47 4033.38,-681.97"/>
<polygon fill="#757575" stroke="#757575" points="4034.51,-685.29 4043.07,-679.06 4032.49,-678.58 4034.51,-685.29"/>
</g>
<!-- ../contexts/actions/user&#45;actions.js&#45;&gt;../contexts/actions/action&#45;types.js -->
<g id="edge83" class="edge">
<title>../contexts/actions/user&#45;actions.js&#45;&gt;../contexts/actions/action&#45;types.js</title>
<path fill="none" stroke="#757575" d="M3919.62,-679.93C3932.8,-678.91 3946.3,-677.86 3959.61,-676.83"/>
<polygon fill="#757575" stroke="#757575" points="3960.04,-680.31 3969.74,-676.04 3959.5,-673.33 3960.04,-680.31"/>
</g>
<!-- ../contexts/reducers/cart&#45;reducer.js -->
<g id="node64" class="node">
<title>../contexts/reducers/cart&#45;reducer.js</title>
<path fill="none" stroke="#c6c5fe" d="M3621.33,-578C3621.33,-578 3405.67,-578 3405.67,-578 3401.83,-578 3398,-574.17 3398,-570.33 3398,-570.33 3398,-562.67 3398,-562.67 3398,-558.83 3401.83,-555 3405.67,-555 3405.67,-555 3621.33,-555 3621.33,-555 3625.17,-555 3629,-558.83 3629,-562.67 3629,-562.67 3629,-570.33 3629,-570.33 3629,-574.17 3625.17,-578 3621.33,-578"/>
<text text-anchor="middle" x="3513.5" y="-562.8" font-family="Arial" font-size="14.00" fill="#c6c5fe">../contexts/reducers/cart&#45;reducer.js</text>
</g>
<!-- ../contexts/wrappers/CartWrapper.js&#45;&gt;../contexts/reducers/cart&#45;reducer.js -->
<g id="edge90" class="edge">
<title>../contexts/wrappers/CartWrapper.js&#45;&gt;../contexts/reducers/cart&#45;reducer.js</title>
<path fill="none" stroke="#757575" d="M3327.64,-566.5C3347.41,-566.5 3367.97,-566.5 3387.89,-566.5"/>
<polygon fill="#757575" stroke="#757575" points="3387.92,-570 3397.92,-566.5 3387.92,-563 3387.92,-570"/>
</g>
<!-- ../contexts/wrappers/FeedbackWrapper.js&#45;&gt;../contexts/actions/index.js -->
<g id="edge91" class="edge">
<title>../contexts/wrappers/FeedbackWrapper.js&#45;&gt;../contexts/actions/index.js</title>
<path fill="none" stroke="#757575" d="M3315.82,-619.01C3325.82,-621.34 3335.68,-624.14 3345,-627.5 3401.2,-647.79 3459.07,-688.2 3489.9,-711.61"/>
<polygon fill="#757575" stroke="#757575" points="3487.8,-714.4 3497.86,-717.73 3492.06,-708.85 3487.8,-714.4"/>
</g>
<!-- ../contexts/reducers/feedback&#45;reducer.js -->
<g id="node65" class="node">
<title>../contexts/reducers/feedback&#45;reducer.js</title>
<path fill="none" stroke="#c6c5fe" d="M3638.33,-619C3638.33,-619 3388.67,-619 3388.67,-619 3384.83,-619 3381,-615.17 3381,-611.33 3381,-611.33 3381,-603.67 3381,-603.67 3381,-599.83 3384.83,-596 3388.67,-596 3388.67,-596 3638.33,-596 3638.33,-596 3642.17,-596 3646,-599.83 3646,-603.67 3646,-603.67 3646,-611.33 3646,-611.33 3646,-615.17 3642.17,-619 3638.33,-619"/>
<text text-anchor="middle" x="3513.5" y="-603.8" font-family="Arial" font-size="14.00" fill="#c6c5fe">../contexts/reducers/feedback&#45;reducer.js</text>
</g>
<!-- ../contexts/wrappers/FeedbackWrapper.js&#45;&gt;../contexts/reducers/feedback&#45;reducer.js -->
<g id="edge92" class="edge">
<title>../contexts/wrappers/FeedbackWrapper.js&#45;&gt;../contexts/reducers/feedback&#45;reducer.js</title>
<path fill="none" stroke="#757575" d="M3345.21,-607.5C3353.62,-607.5 3362.08,-607.5 3370.51,-607.5"/>
<polygon fill="#757575" stroke="#757575" points="3370.76,-611 3380.76,-607.5 3370.76,-604 3370.76,-611"/>
</g>
<!-- ../contexts/wrappers/UserWrapper.js&#45;&gt;../contexts/actions/index.js -->
<g id="edge93" class="edge">
<title>../contexts/wrappers/UserWrapper.js&#45;&gt;../contexts/actions/index.js</title>
<path fill="none" stroke="#757575" d="M3278.57,-660.02C3300,-664.05 3323.59,-668.96 3345,-674.5 3388.96,-685.87 3438.22,-702.53 3471.88,-714.54"/>
<polygon fill="#757575" stroke="#757575" points="3470.77,-717.86 3481.37,-717.94 3473.14,-711.27 3470.77,-717.86"/>
</g>
<!-- ../contexts/reducers/user&#45;reducer.js -->
<g id="node66" class="node">
<title>../contexts/reducers/user&#45;reducer.js</title>
<path fill="none" stroke="#c6c5fe" d="M3917.83,-659C3917.83,-659 3698.17,-659 3698.17,-659 3694.33,-659 3690.5,-655.17 3690.5,-651.33 3690.5,-651.33 3690.5,-643.67 3690.5,-643.67 3690.5,-639.83 3694.33,-636 3698.17,-636 3698.17,-636 3917.83,-636 3917.83,-636 3921.67,-636 3925.5,-639.83 3925.5,-643.67 3925.5,-643.67 3925.5,-651.33 3925.5,-651.33 3925.5,-655.17 3921.67,-659 3917.83,-659"/>
<text text-anchor="middle" x="3808" y="-643.8" font-family="Arial" font-size="14.00" fill="#c6c5fe">../contexts/reducers/user&#45;reducer.js</text>
</g>
<!-- ../contexts/wrappers/UserWrapper.js&#45;&gt;../contexts/reducers/user&#45;reducer.js -->
<g id="edge94" class="edge">
<title>../contexts/wrappers/UserWrapper.js&#45;&gt;../contexts/reducers/user&#45;reducer.js</title>
<path fill="none" stroke="#757575" d="M3329.29,-648.3C3431.12,-648.13 3576.63,-647.89 3680.25,-647.71"/>
<polygon fill="#757575" stroke="#757575" points="3680.46,-651.21 3690.46,-647.69 3680.45,-644.21 3680.46,-651.21"/>
</g>
<!-- ../contexts/reducers/cart&#45;reducer.js&#45;&gt;../contexts/actions/action&#45;types.js -->
<g id="edge87" class="edge">
<title>../contexts/reducers/cart&#45;reducer.js&#45;&gt;../contexts/actions/action&#45;types.js</title>
<path fill="none" stroke="#757575" d="M3629.28,-566.12C3714.58,-568.29 3833.13,-576.5 3934,-602.5 3976.48,-613.45 4022.19,-635.67 4050.93,-651.06"/>
<polygon fill="#757575" stroke="#757575" points="4049.53,-654.29 4059.99,-655.99 4052.88,-648.14 4049.53,-654.29"/>
</g>
<!-- ../contexts/reducers/feedback&#45;reducer.js&#45;&gt;../contexts/actions/action&#45;types.js -->
<g id="edge88" class="edge">
<title>../contexts/reducers/feedback&#45;reducer.js&#45;&gt;../contexts/actions/action&#45;types.js</title>
<path fill="none" stroke="#757575" d="M3646.14,-605.78C3729.19,-606.59 3838.45,-611.13 3934,-626.5 3969.46,-632.2 4008.59,-643.47 4037.4,-652.75"/>
<polygon fill="#757575" stroke="#757575" points="4036.55,-656.16 4047.14,-655.94 4038.73,-649.5 4036.55,-656.16"/>
</g>
<!-- ../contexts/reducers/user&#45;reducer.js&#45;&gt;../contexts/actions/action&#45;types.js -->
<g id="edge89" class="edge">
<title>../contexts/reducers/user&#45;reducer.js&#45;&gt;../contexts/actions/action&#45;types.js</title>
<path fill="none" stroke="#757575" d="M3925.5,-656.1C3936.7,-656.92 3948.08,-657.76 3959.33,-658.59"/>
<polygon fill="#757575" stroke="#757575" points="3959.37,-662.11 3969.6,-659.35 3959.89,-655.13 3959.37,-662.11"/>
</g>
<!-- ProductDetail.js -->
<g id="node68" class="node">
<title>ProductDetail.js</title>
<path fill="none" stroke="#c6c5fe" d="M107.33,-467C107.33,-467 7.67,-467 7.67,-467 3.83,-467 0,-463.17 0,-459.33 0,-459.33 0,-451.67 0,-451.67 0,-447.83 3.83,-444 7.67,-444 7.67,-444 107.33,-444 107.33,-444 111.17,-444 115,-447.83 115,-451.67 115,-451.67 115,-459.33 115,-459.33 115,-463.17 111.17,-467 107.33,-467"/>
<text text-anchor="middle" x="57.5" y="-451.8" font-family="Arial" font-size="14.00" fill="#c6c5fe">ProductDetail.js</text>
</g>
<!-- ProductDetail.js&#45;&gt;../apollo/queries.js -->
<g id="edge96" class="edge">
<title>ProductDetail.js&#45;&gt;../apollo/queries.js</title>
<path fill="none" stroke="#757575" d="M115,-447.41C254.39,-428.92 625.46,-388.54 930,-434.5 987.41,-443.16 1051.14,-465.24 1090.27,-480.32"/>
<polygon fill="#757575" stroke="#757575" points="1089.08,-483.61 1099.67,-483.99 1091.63,-477.09 1089.08,-483.61"/>
</g>
<!-- ProductDetail.js&#45;&gt;../components/product&#45;detail/ProductImages.js -->
<g id="edge97" class="edge">
<title>ProductDetail.js&#45;&gt;../components/product&#45;detail/ProductImages.js</title>
<path fill="none" stroke="#757575" d="M72.17,-467.19C89.35,-481.17 120.31,-504.12 151,-515.5 158.08,-518.13 165.45,-520.43 172.97,-522.45"/>
<polygon fill="#757575" stroke="#757575" points="172.37,-525.91 182.92,-524.94 174.07,-519.12 172.37,-525.91"/>
</g>
<!-- ProductDetail.js&#45;&gt;../components/product&#45;detail/ProductInfo.js -->
<g id="edge98" class="edge">
<title>ProductDetail.js&#45;&gt;../components/product&#45;detail/ProductInfo.js</title>
<path fill="none" stroke="#757575" d="M67.73,-467.31C113.24,-524.12 320.79,-766.5 548.5,-766.5 548.5,-766.5 548.5,-766.5 1129.5,-766.5 1457.77,-766.5 1845.34,-723.4 2022.65,-701.27"/>
<polygon fill="#757575" stroke="#757575" points="2023.25,-704.73 2032.73,-700.01 2022.38,-697.78 2023.25,-704.73"/>
</g>
<!-- ProductDetail.js&#45;&gt;../components/product&#45;detail/ProductReviews.js -->
<g id="edge99" class="edge">
<title>ProductDetail.js&#45;&gt;../components/product&#45;detail/ProductReviews.js</title>
<path fill="none" stroke="#757575" d="M115.28,-464.68C147.63,-469.91 188.72,-476.55 224.47,-482.32"/>
<polygon fill="#757575" stroke="#757575" points="223.97,-485.79 234.4,-483.93 225.09,-478.88 223.97,-485.79"/>
</g>
<!-- ProductDetail.js&#45;&gt;../components/product&#45;detail/RecentlyViewed.js -->
<g id="edge100" class="edge">
<title>ProductDetail.js&#45;&gt;../components/product&#45;detail/RecentlyViewed.js</title>
<path fill="none" stroke="#757575" d="M78.72,-444C97,-434.18 124.95,-420.55 151,-413.5 428.68,-338.3 765.83,-329.3 962.56,-331.85"/>
<polygon fill="#757575" stroke="#757575" points="962.65,-335.35 972.7,-331.99 962.75,-328.35 962.65,-335.35"/>
</g>
<!-- ProductDetail.js&#45;&gt;../components/ui/layout.js -->
<g id="edge101" class="edge">
<title>ProductDetail.js&#45;&gt;../components/ui/layout.js</title>
<path fill="none" stroke="#757575" d="M62.73,-443.78C73.05,-417.1 102.3,-352.07 151,-324.5 331.38,-222.37 588.67,-245.27 711.49,-264.36"/>
<polygon fill="#757575" stroke="#757575" points="711.1,-267.84 721.53,-265.96 712.2,-260.93 711.1,-267.84"/>
</g>
<!-- ProductDetail.js&#45;&gt;../components/ui/seo.js -->
<g id="edge102" class="edge">
<title>ProductDetail.js&#45;&gt;../components/ui/seo.js</title>
<path fill="none" stroke="#757575" d="M115.27,-455.5C240.64,-455.5 541.95,-455.5 692.8,-455.5"/>
<polygon fill="#757575" stroke="#757575" points="692.96,-459 702.96,-455.5 692.96,-452 692.96,-459"/>
</g>
</g>
</svg>
